<svg width="79" height="47" viewBox="0 0 79 47" fill="#93C11A" xmlns="http://www.w3.org/2000/svg">
<path d="M76.2998 15.9697H74.3711V8.17773C74.3711 6.34855 72.8829 4.86035 71.0537 4.86035H66.1162C65.7667 4.86035 65.4299 4.91543 65.1133 5.01619V4.55176C65.1133 2.04196 63.0713 0 60.5615 0H54.3896C51.8799 0 49.8379 2.04196 49.8379 4.55176V18.1748H29.1621V4.55176C29.1621 2.04196 27.1201 0 24.6104 0H18.4385C15.9287 0 13.8867 2.04196 13.8867 4.55176V5.01619C13.5701 4.91543 13.2333 4.86035 12.8838 4.86035H7.94629C6.1171 4.86035 4.62891 6.34855 4.62891 8.17773V9.67241C4.62891 10.3115 5.14704 10.8296 5.78613 10.8296C6.42523 10.8296 6.94336 10.3115 6.94336 9.67241V8.17773C6.94336 7.62473 7.39329 7.1748 7.94629 7.1748H12.8838C13.4368 7.1748 13.8867 7.62473 13.8867 8.17773V38.4199C13.8867 38.9729 13.4368 39.4229 12.8838 39.4229H7.94629C7.39329 39.4229 6.94336 38.9729 6.94336 38.4199V14.6241C6.94336 13.985 6.42523 13.4669 5.78613 13.4669C5.14704 13.4669 4.62891 13.985 4.62891 14.6241V15.9697H2.7002C1.21138 15.9697 0 17.1811 0 18.6699V27.9277C0 29.4165 1.21138 30.6279 2.7002 30.6279H4.62891V38.4199C4.62891 40.2491 6.1171 41.7373 7.94629 41.7373H12.8838C13.2333 41.7373 13.5701 41.6822 13.8867 41.5815V42.0459C13.8867 44.5557 15.9287 46.5977 18.4385 46.5977H24.6104C27.1201 46.5977 29.1621 44.5557 29.1621 42.0459V28.4229H30.8464C31.4855 28.4229 32.0036 27.9047 32.0036 27.2656C32.0036 26.6266 31.4855 26.1084 30.8464 26.1084H29.1621V20.4892H49.8379V26.1084H35.8629C35.2238 26.1084 34.7057 26.6266 34.7057 27.2656C34.7057 27.9047 35.2238 28.4229 35.8629 28.4229H49.8379V42.0459C49.8379 44.5557 51.8799 46.5977 54.3896 46.5977H60.5615C63.0713 46.5977 65.1133 44.5557 65.1133 42.0459V41.5815C65.4299 41.6822 65.7667 41.7373 66.1162 41.7373H71.0537C72.8829 41.7373 74.3711 40.2491 74.3711 38.4199V36.8572C74.3711 36.2181 73.853 35.7 73.2139 35.7C72.5748 35.7 72.0566 36.2181 72.0566 36.8572V38.4199C72.0566 38.9729 71.6067 39.4229 71.0537 39.4229H66.1162C65.5632 39.4229 65.1133 38.9729 65.1133 38.4199V8.17773C65.1133 7.62473 65.5632 7.1748 66.1162 7.1748H71.0537C71.6067 7.1748 72.0566 7.62473 72.0566 8.17773V31.8623C72.0566 32.5014 72.5748 33.0195 73.2139 33.0195C73.853 33.0195 74.3711 32.5014 74.3711 31.8623V30.6279H76.2998C77.7886 30.6279 79 29.4165 79 27.9277V18.6699C79 17.1811 77.7886 15.9697 76.2998 15.9697ZM2.7002 28.3135C2.48757 28.3135 2.31445 28.1404 2.31445 27.9277V18.6699C2.31445 18.4573 2.48757 18.2842 2.7002 18.2842H4.62891V28.3135H2.7002ZM26.8477 42.0459C26.8477 43.2795 25.844 44.2832 24.6104 44.2832H18.4385C17.2049 44.2832 16.2012 43.2795 16.2012 42.0459V4.55176C16.2012 3.31815 17.2049 2.31445 18.4385 2.31445H24.6104C25.844 2.31445 26.8477 3.31815 26.8477 4.55176V42.0459ZM62.7988 42.0459C62.7988 43.2795 61.7951 44.2832 60.5615 44.2832H54.3896C53.156 44.2832 52.1523 43.2795 52.1523 42.0459V4.55176C52.1523 3.31815 53.156 2.31445 54.3896 2.31445H60.5615C61.7951 2.31445 62.7988 3.31815 62.7988 4.55176V42.0459ZM76.6855 27.9277C76.6855 28.1404 76.5124 28.3135 76.2998 28.3135H74.3711V18.2842H76.2998C76.5124 18.2842 76.6855 18.4573 76.6855 18.6699V27.9277Z"/>
</svg>
