<svg width="79" height="79" viewBox="0 0 79 79" fill="none" xmlns="http://www.w3.org/2000/svg">
<path d="M39.3623 10.0386C40.2205 10.0386 40.9162 9.34283 40.9162 8.48463V1.55392C40.9162 0.695725 40.2205 0 39.3623 0C38.5041 0 37.8083 0.695725 37.8083 1.55392V8.48463C37.8085 9.34283 38.5042 10.0386 39.3623 10.0386Z" fill="#FFFF00"/>
<path d="M77.3459 53.3844L74.6008 50.647C73.6243 49.6717 72.3228 49.1345 70.936 49.1345C70.0492 49.1345 69.198 49.3551 68.4436 49.7685L63.2707 44.6017L63.5226 44.35C65.6212 42.2473 65.6204 38.8304 63.5225 36.7347C62.7727 35.9836 61.8372 35.4827 60.8175 35.272C60.9579 34.7873 61.0318 34.2797 61.0318 33.7602C61.0318 32.3167 60.4711 30.9632 59.4561 29.9524C58.7062 29.2013 57.7709 28.7005 56.7512 28.4897C56.8916 28.0051 56.9655 27.4976 56.9655 26.9779C56.9655 25.5343 56.4048 24.181 55.3881 23.1686C54.6203 22.4018 53.6765 21.9163 52.6854 21.7097C53.2156 19.8818 52.7626 17.8252 51.3245 16.3846C50.1275 15.1927 48.5032 14.6804 46.9379 14.8465L36.6872 12.9062C35.1238 12.6096 33.1715 12.4135 31.9391 13.5376C31.8614 13.6085 31.7821 13.6902 31.704 13.781C29.7932 13.0845 27.5645 13.4993 26.0344 15.0278C25.0192 16.0416 24.4601 17.3945 24.4601 18.8372C24.4601 19.3569 24.5337 19.8643 24.6739 20.3491C23.6553 20.5598 22.721 21.06 21.9737 21.8086C20.9566 22.8216 20.3957 24.1729 20.3946 25.6139C20.3942 26.1348 20.4681 26.644 20.6091 27.13C19.59 27.3402 18.6551 27.8395 17.9055 28.5881C16.8884 29.6042 16.3283 30.9578 16.3283 32.3997C16.3283 33.5042 16.658 34.5563 17.2691 35.4451C16.4976 35.7066 15.7909 36.1419 15.1992 36.733C13.0992 38.8304 13.0984 42.2474 15.2006 44.3533L15.4516 44.6032L10.278 49.7674C8.35533 48.8621 5.98641 49.2013 4.39977 50.7859L1.65298 53.525C0.675973 54.5008 0.138094 55.8024 0.137939 57.19C0.137939 58.5777 0.675973 59.8795 1.65298 60.8555L5.08099 64.2793C5.68815 64.8859 6.6721 64.8852 7.27849 64.2781C7.88503 63.6709 7.88441 62.687 7.27726 62.0806L3.84924 58.6567C3.46011 58.2681 3.24579 57.7472 3.24579 57.1902C3.24579 56.6333 3.46011 56.1125 3.84832 55.7248L6.59526 52.9856C7.28158 52.3 8.33203 52.1979 9.12974 52.6748C9.18591 52.7592 9.25087 52.8394 9.32524 52.914C9.4584 53.0474 9.61038 53.1497 9.77177 53.2246L25.5244 68.9541C25.5992 69.1171 25.702 69.2707 25.8361 69.4049C25.9666 69.5356 26.1155 69.6367 26.2735 69.711C26.6066 70.0877 26.7907 70.5688 26.7907 71.082C26.7907 71.639 26.5764 72.1597 26.1873 72.5484L23.4431 75.2893C22.6323 76.0966 21.3133 76.0965 20.505 75.2918L17.077 71.8635C16.4701 71.2566 15.4863 71.2566 14.8795 71.8635C14.2726 72.4703 14.2726 73.4541 14.8795 74.061L18.3099 77.4918C19.3197 78.4973 20.6457 78.9999 21.9723 78.9999C23.2993 78.9999 24.6269 78.4965 25.6378 77.4901L28.3837 74.7474C29.3607 73.7715 29.8987 72.4699 29.8987 71.082C29.8987 70.0915 29.6233 69.1457 29.1112 68.3301L34.9337 62.5146C34.9399 62.5083 34.9461 62.502 34.9524 62.4957C35.6191 61.8064 37.4758 61.9354 39.2713 62.0601C40.5471 62.1488 41.9694 62.2474 43.359 62.0872L49.7351 68.4558C49.3221 69.209 49.1016 70.0591 49.1016 70.9445C49.1016 72.3308 49.6396 73.6317 50.6166 74.6076L53.3626 77.3503C54.339 78.3256 55.6405 78.8628 57.0273 78.8628C58.414 78.8628 59.7155 78.3257 60.6921 77.3503L77.347 60.7155C78.324 59.7397 78.862 58.4381 78.862 57.0504C78.8619 55.6628 78.3239 54.3611 77.3459 53.3844ZM36.1086 15.9597L42.8493 17.2356L38.8146 21.2688C38.1905 20.9688 37.3351 20.4093 36.3966 19.5116C35.1121 18.2828 34.1933 16.864 34.1096 15.9792C34.1095 15.9787 34.1095 15.9782 34.1095 15.9778C34.1095 15.9776 34.1093 15.9775 34.1093 15.9773C34.1033 15.9137 34.1018 15.863 34.1025 15.8242C34.3057 15.7749 34.8455 15.7201 36.1086 15.9597ZM28.2305 17.2266C29.0177 16.4402 30.2406 16.3495 31.1302 16.9518C31.6343 19.0654 33.4372 20.981 34.2483 21.7571C34.8495 22.3323 36.7784 24.0569 38.7253 24.5309C38.9887 24.9085 39.132 25.3586 39.132 25.8335C39.132 26.4453 38.8967 27.0172 38.4679 27.4456C38.0403 27.8739 37.4674 28.1097 36.8546 28.1097C36.2416 28.1097 35.6686 27.8739 35.2391 27.4436L35.2389 27.4434L35.2382 27.4426L28.2303 20.4474C27.8031 20.0208 27.5678 19.4488 27.5678 18.8372C27.5679 18.2254 27.8032 17.6534 28.2305 17.2266ZM24.17 24.0075C24.5975 23.5794 25.1698 23.3434 25.7818 23.3434C26.3945 23.3434 26.9686 23.5798 27.399 24.0097L33.0419 29.6414C33.9305 30.5314 33.9305 31.9796 33.045 32.8665C32.6151 33.2947 32.0402 33.5304 31.4263 33.5304C30.8123 33.5304 30.2374 33.2947 29.8094 32.8683L29.8092 32.8682L25.5283 28.5881C25.5216 28.5815 25.5144 28.5753 25.5076 28.5685L24.1683 27.2299C23.7386 26.8006 23.502 26.2276 23.5025 25.6162C23.5031 25.0069 23.7389 24.4368 24.17 24.0075ZM20.1018 30.787C20.5297 30.3598 21.1032 30.1245 21.717 30.1245C22.3257 30.1245 22.8943 30.3564 23.3203 30.7762L27.6144 35.0683C28.0425 35.4948 28.2784 36.0661 28.2784 36.6772C28.2784 37.288 28.0425 37.8594 27.6127 38.2875C27.1849 38.7146 26.612 38.9499 25.9993 38.9499C25.3857 38.9499 24.8109 38.714 24.3826 38.2875L22.8259 36.7327C22.8256 36.7322 22.8251 36.7319 22.8248 36.7316L20.1019 34.012C19.6727 33.5832 19.4363 33.0104 19.4363 32.3994C19.4363 31.7886 19.6727 31.2157 20.1018 30.787ZM17.3954 38.9317C17.8251 38.5025 18.3994 38.2661 19.0125 38.2661C19.6253 38.2661 20.1995 38.5023 20.629 38.9313L22.1879 40.4883C22.6162 40.9148 22.852 41.4861 22.852 42.0971C22.852 42.7082 22.6161 43.2794 22.1846 43.7092C21.7571 44.1374 21.1842 44.3733 20.5713 44.3733C19.9583 44.3733 19.3854 44.1376 18.9548 43.7062L18.7596 43.5117C18.7569 43.5091 18.7549 43.5063 18.7525 43.5039C18.7495 43.5011 18.7464 43.4986 18.7435 43.4958L17.397 42.1545C16.5084 41.2641 16.5076 39.8185 17.3954 38.9317ZM49.0624 56.5923C48.4558 55.9849 47.4719 55.9845 46.8649 56.5909L45.4824 57.9717C44.1687 59.2853 41.7884 59.1199 39.4864 58.9602C36.9867 58.7865 34.4017 58.6072 32.729 60.3245L27.0053 66.0412L12.6923 51.7492L17.7576 46.693C18.5948 47.2062 19.5608 47.4813 20.5716 47.4813C22.0157 47.4813 23.3698 46.9215 24.3812 45.9083C25.3994 44.8942 25.9603 43.5409 25.9603 42.0973C25.9603 42.0839 25.9594 42.0706 25.9594 42.0572C25.9728 42.0573 25.9862 42.0581 25.9996 42.0581C27.4417 42.0581 28.7947 41.5 29.8075 40.4884C30.8257 39.4744 31.3866 38.1209 31.3866 36.6775C31.3866 36.664 31.3857 36.6508 31.3857 36.6373C31.3993 36.6373 31.4128 36.6383 31.4266 36.6383C32.8682 36.6383 34.222 36.0808 35.2416 35.0654C36.3 34.0052 36.8236 32.6094 36.8135 31.2166C36.8274 31.2167 36.8413 31.2175 36.8552 31.2175C38.2993 31.2174 39.6532 30.6577 40.6662 29.6429C41.6813 28.629 42.2405 27.2762 42.2405 25.8335C42.2405 24.8245 41.9661 23.86 41.4546 23.0245L45.8942 18.5868C46.225 18.2573 46.633 18.0506 47.0605 17.9653C47.1068 17.9603 47.1525 17.9529 47.1977 17.944C47.8837 17.8494 48.6041 18.0611 49.1287 18.5835C50.0173 19.4737 50.0173 20.9219 49.132 21.8088L47.7799 23.1553C47.7754 23.1598 47.7706 23.1638 47.7661 23.1683L46.2088 24.723C45.6015 25.3294 45.6009 26.3133 46.2074 26.9205C46.8141 27.5278 47.7979 27.5283 48.4049 26.9219L49.7624 25.5662C49.7627 25.5659 49.763 25.5656 49.7634 25.5653L49.9686 25.3609C50.8596 24.478 52.3032 24.4798 53.1934 25.3687C53.6217 25.7952 53.8576 26.3666 53.8576 26.9776C53.8576 27.5885 53.6217 28.1598 53.19 28.5897L51.8302 29.9523C51.83 29.9524 51.8299 29.9526 51.8297 29.9529L50.2725 31.5037C49.6645 32.1093 49.6624 33.0933 50.2681 33.7012C50.8737 34.3093 51.8575 34.3112 52.4656 33.7057L54.0298 32.1478C54.4574 31.7194 55.0303 31.4837 55.6431 31.4837C56.2562 31.4837 56.8292 31.7194 57.2599 32.1509C57.6882 32.5775 57.924 33.1488 57.924 33.7599C57.924 34.3707 57.6882 34.9421 57.2574 35.371L54.5464 38.0831C53.9397 38.6901 53.9399 39.6739 54.5467 40.2806C54.8502 40.584 55.2477 40.7355 55.6453 40.7355C56.0431 40.7355 56.4409 40.5836 56.7442 40.2801L58.0729 38.951C58.0804 38.9438 58.0886 38.9374 58.0962 38.9299C58.5237 38.5016 59.0966 38.2658 59.7095 38.2658C60.3225 38.2658 60.8954 38.5016 61.3245 38.9314C62.2122 39.8182 62.2114 41.2639 61.3245 42.1524L59.9736 43.5017C59.9732 43.5022 59.9726 43.5026 59.9721 43.5031C59.9716 43.5036 59.9712 43.5042 59.9707 43.5046L57.8266 45.6461C57.2194 46.2527 57.2188 47.2366 57.8252 47.8438C58.1287 48.1476 58.5268 48.2996 58.9247 48.2996C59.322 48.2996 59.7195 48.148 60.0229 47.8452L61.0716 46.7976L66.0981 51.8183L51.7863 66.1127L46.6584 60.9909C47.0159 60.761 47.358 60.4907 47.6791 60.1696L49.0608 58.7896C49.6683 58.1834 49.6689 57.1994 49.0624 56.5923ZM75.1506 58.5166L58.4956 75.1514C58.106 75.5405 57.5845 75.7548 57.0272 75.7548C56.4699 75.7548 55.9483 75.5405 55.5586 75.1512L52.8126 72.4086C52.4234 72.0201 52.2091 71.5001 52.2091 70.9445C52.2091 70.389 52.4234 69.869 52.8126 69.4804L69.4675 52.8456C69.8573 52.4563 70.3787 52.242 70.9361 52.242C71.4934 52.242 72.015 52.4563 72.4056 52.8465L75.1507 55.5839C75.5399 55.9726 75.7542 56.4932 75.7542 57.0502C75.754 57.6074 75.5397 58.1281 75.1506 58.5166Z" fill="#FFFF00"/>
<path d="M18.7282 8.72863C19.0316 9.03136 19.4287 9.18258 19.8259 9.18258C20.224 9.18258 20.6222 9.03044 20.9257 8.72632C21.532 8.11885 21.531 7.13506 20.9236 6.52882L15.2612 0.8777C14.6539 0.271467 13.6699 0.272239 13.0637 0.87986C12.4574 1.48733 12.4584 2.47112 13.0658 3.07736L18.7282 8.72863Z" fill="#FFFF00"/>
<path d="M58.8986 9.18252C59.2959 9.18252 59.6934 9.031 59.9967 8.72811L65.6548 3.07683C66.262 2.47045 66.2626 1.4865 65.656 0.879339C65.0497 0.27218 64.0659 0.271563 63.4586 0.878104L57.8005 6.52938C57.1933 7.13577 57.1927 8.11972 57.7992 8.72688C58.1027 9.03069 58.5007 9.18252 58.8986 9.18252Z" fill="#FFFF00"/>
<path d="M9.69285 66.842C9.09125 67.4539 9.09958 68.4379 9.71168 69.0395L9.71615 69.0438C10.0181 69.3407 10.4102 69.4885 10.8021 69.4885C11.2043 69.4885 11.6066 69.3328 11.9113 69.0228C12.5129 68.4109 12.5023 67.4248 11.8903 66.8232C11.2786 66.2216 10.2948 66.23 9.69285 66.842Z" fill="#FFFF00"/>
<path d="M52.863 54.3536C53.0994 54.3536 53.3392 54.2997 53.5643 54.1863C54.3306 53.7998 54.6384 52.8654 54.252 52.0992C53.8655 51.3329 52.9309 51.0249 52.1648 51.4115L52.1562 51.4158C51.39 51.8023 51.0865 52.7345 51.4728 53.5008C51.7456 54.0421 52.2943 54.3536 52.863 54.3536Z" fill="#FFFF00"/>
</svg>
