<svg width="268" height="111" viewBox="0 0 268 111" fill="none" xmlns="http://www.w3.org/2000/svg">
<path d="M133.71 0.292235C135.483 -0.320716 137.421 0.190982 139.046 0.990534C140.181 1.71987 141.317 2.45696 142.589 2.93413C142.686 3.11647 142.888 3.47725 142.985 3.65571C142.935 3.77597 142.838 4.02425 142.787 4.14452C143.693 6.20062 144.273 8.63691 143.394 10.7974C142.795 11.5267 141.753 11.6396 140.909 11.922C140.905 12.9656 141.072 13.9979 141.161 15.0337C142.966 15.3247 144.494 14.0716 146.279 14.1958C146.52 13.1987 146.71 12.1854 147.03 11.2082C147.399 11.8561 147.415 12.6013 147.419 13.3306C147.886 13.4625 148.36 13.5828 148.838 13.6988C148.842 13.8776 148.846 14.2345 148.846 14.413C156.67 14.4596 164.491 14.3777 172.316 14.4557C172.296 14.7226 172.258 15.2583 172.243 15.5264C172.445 15.5264 172.857 15.5303 173.063 15.5303C173.055 14.1108 173.063 12.6867 173.059 11.2672C173.257 11.259 173.646 11.2474 173.84 11.2435C173.845 12.3608 173.848 13.4781 173.86 14.5957C174.031 14.8052 174.373 15.2238 174.545 15.4333C174.673 15.2816 174.93 14.9837 175.058 14.832C175.653 15.3871 175.314 16.1475 175.288 16.8295C177.477 16.8058 179.689 16.9533 181.872 16.7748C182.035 16.6545 182.362 16.4179 182.525 16.298C182.825 16.414 183.128 16.5308 183.427 16.6511C184.411 16.627 185.399 16.6239 186.387 16.62C186.367 17.1282 186.351 17.636 186.332 18.1446C185.06 18.1248 183.785 18.0981 182.532 18.3149C181.723 17.6209 180.638 17.8413 179.662 17.8149C178.161 17.8847 176.612 17.6209 175.159 18.0977C174.295 18.3382 173.346 18.2804 172.584 17.7912C172.401 18.2451 172.681 19.2615 171.914 19.2223C168.897 19.2615 165.883 19.1956 162.869 19.2421C162.456 19.4594 162.04 19.665 161.629 19.8663C161.193 21.1621 159.945 22.0268 158.882 22.8182C158.75 24.8083 159.54 26.6666 159.847 28.5982C159.252 28.7685 158.653 28.9438 158.066 29.1378C157.222 31.1241 157.739 33.8354 155.787 35.2211C154.29 36.0898 153.299 37.979 151.279 37.6807C152.306 38.5342 150.999 38.2665 151.136 37.5837C147.484 37.2617 144.408 35.1242 141.234 33.4952C141.086 34.3871 140.853 35.2642 140.612 36.1371C141.817 36.366 142.813 37.2505 143.027 38.4841C143.412 41.173 142.642 43.8424 142.654 46.5382C142.739 48.1211 142.059 49.5716 141.211 50.8634C140.468 51.7014 139.297 50.8398 138.407 50.716C138.204 51.1078 138.006 51.5 137.812 51.8954C138.065 52.9502 138.174 54.0481 138.527 55.08C140.515 57.2719 142.323 59.6465 143.711 62.2651C145.141 65.2306 146.414 68.2683 147.527 71.3659C147.635 71.9676 148.203 72.1837 148.702 72.4017C148.768 73.0224 148.834 73.6423 148.896 74.2712C149.091 74.5544 149.289 74.8372 149.491 75.1243C149.612 78.9498 149.141 82.759 148.545 86.5337C148.177 88.2372 149.175 89.9011 148.771 91.6158C148.818 92.4937 148.212 93.1567 147.927 93.9326C147.873 95.7443 147.783 97.5788 147.982 99.3874C148.122 100.714 149.246 101.567 150.009 102.557C150.841 103.438 151.537 104.621 152.797 104.935C153.983 105.288 155.115 105.8 156.16 106.471C156.479 107.258 156.421 108.093 156.269 108.911C153.99 109.33 151.664 109.121 149.362 109.156C147.588 109.249 146.006 108.299 144.282 108.1C142.614 108.058 140.58 108.884 139.297 107.395C139.841 105.328 139.885 103.108 140.879 101.179C141.198 98.9956 140.592 96.7801 140.72 94.5766C140.53 94.4175 140.148 94.0994 139.958 93.9396C140.095 92.5007 139.383 91.2201 139.145 89.8433C138.99 87.8325 138.807 85.8238 138.573 83.822C138.391 82.8482 138.896 81.9564 139.584 81.3085C139.647 80.1834 139.799 79.0697 139.907 77.9528C139.74 77.2269 139.161 76.6881 138.787 76.0674C137.539 76.5919 135.855 76.3432 135.112 75.1243C133.351 72.5099 131.593 69.8952 129.811 67.2956C129.111 67.2494 128.372 67.3227 127.719 67.0434C126.965 66.2718 126.572 65.2437 126.09 64.3049C125.402 65.0769 125.452 66.2598 124.636 66.9623C122.909 68.6154 122.45 71.0439 121.548 73.1617C120.857 74.5346 121.245 76.1911 120.475 77.5299C120.062 78.2511 119.028 78.3946 118.756 79.2179C118.398 80.1055 117.978 81.0253 117.142 81.5653C116.236 82.1581 115.995 83.2839 115.591 84.2142C115.221 85.0719 115.77 85.9716 115.641 86.8526C115.066 89.6501 113.281 91.989 112.53 94.7282C112.188 95.9619 111.698 97.3507 110.259 97.6142C108.621 100.531 107.72 104.101 108.645 107.386C109.213 108.418 109.182 109.578 109.007 110.714C106.405 110.916 103.737 111.265 101.182 110.54C100.584 109.356 100.669 107.964 100.794 106.685C101.583 103.32 102.629 100.016 103.27 96.6171C102.469 95.9072 102.656 94.8213 102.672 93.8705C102.645 92.0976 103.854 90.6777 104.694 89.2229C105.009 87.7293 104.861 86.1244 105.635 84.7538C106.545 83.0391 107.315 81.1851 108.719 79.7998C108.987 78.5778 109.89 77.6548 110.255 76.4782C110.644 75.4385 109.963 74.3833 110.1 73.3207C110.434 70.0961 111.022 66.9037 111.532 63.7032C110.567 62.9002 110.878 61.6242 110.571 60.5415C110.723 60.1147 110.913 59.7078 111.143 59.3117C110.901 59.0906 110.665 58.8655 110.423 58.6448C110.656 57.507 110.59 55.4703 112.34 55.84C112.449 52.073 111.139 48.4264 111.578 44.6552C111.812 44.9263 112.041 45.2022 112.274 45.4776L112.15 44.2013C112.881 43.8133 113.659 43.5146 114.475 43.3633C113.145 43.1891 111.85 42.8516 110.547 42.5486C110.232 41.7219 110.408 40.8417 110.523 39.996C111.029 37.1407 111.216 34.2466 111.321 31.3526C112.795 30.8413 114.42 31.2754 115.859 30.5922C115.413 26.9727 115.3 23.1945 116.59 19.722C117.629 16.7655 119.612 13.9141 122.708 12.8748C124.17 12.526 126.009 12.1338 127.043 13.5498C127.327 13.2899 127.611 13.0222 127.895 12.7623C125.535 8.08603 128.354 1.25434 133.71 0.292235ZM152.599 20.5739C151.976 20.9541 151.366 21.389 152.02 22.0795C151.701 22.2693 151.381 22.452 151.059 22.6262C150.553 23.0141 149.417 23.2348 149.55 24.0193C150.118 24.9291 150.607 25.8854 151.012 26.878C152.252 25.862 153.24 24.4957 153.909 23.0494C154.049 22.9059 154.333 22.6188 154.473 22.4787C154.411 21.8154 154.263 21.1671 154.003 20.5545C153.536 20.5627 153.065 20.5701 152.599 20.5739Z" fill="white"/>
<path d="M164.009 55.3027C165.79 53.0608 168.668 51.819 171.522 51.8656C180.206 51.8737 188.894 51.8617 197.578 51.8694C201.814 51.9587 205.944 55.2604 206.434 59.5515C194.413 59.5115 182.395 59.5864 170.379 59.5115C170.368 67.5346 170.352 75.5612 170.379 83.5881C179.604 83.573 188.828 83.5571 198.053 83.5959C198.018 80.7212 198.064 77.8465 198.026 74.9723C193.465 74.9983 188.902 75.0072 184.341 74.9723C180.682 74.8322 177.959 71.6786 177.135 68.319C186.943 68.2841 196.747 68.2802 206.555 68.3229C206.513 73.2382 206.579 78.1577 206.52 83.0729C206.403 87.2123 202.833 90.8555 198.742 91.2706C189.28 91.2706 179.814 91.2667 170.352 91.2667C167.525 91.2465 165.024 89.4658 163.43 87.2433C162.341 85.6718 162.095 83.7208 161.94 81.8699C161.924 75.2749 161.948 68.6759 161.932 62.0809C161.968 59.6904 162.392 57.1652 164.009 55.3027ZM221.383 52.1367C222.36 51.8729 223.378 51.8539 224.387 51.8656C232.413 51.8896 240.444 51.8388 248.471 51.8849C253.021 52.0789 257.019 55.9979 257.194 60.5516C257.202 67.9113 257.202 75.2741 257.194 82.638C257.112 87.1494 253.107 91.3547 248.515 91.2775C239.687 91.2388 230.859 91.3047 222.03 91.2465C217.627 90.7577 214.248 86.5644 214.217 82.2229C214.155 75.5111 214.225 68.7919 214.182 62.0809C214.147 60.1024 214.505 58.0695 215.555 56.3626C216.787 54.2169 218.996 52.7151 221.383 52.1367ZM222.768 59.2989C222.784 67.5777 222.733 75.8599 222.792 84.1386C231.414 84.1623 240.04 84.1347 248.662 84.1495C248.688 75.8638 248.666 67.5769 248.673 59.2861C240.039 59.283 231.402 59.2679 222.768 59.2989ZM0.0137192 61.2697C0.196891 56.7812 3.96494 52.5638 8.55008 52.3893C17.1172 52.3811 25.6885 52.3811 34.2564 52.3931C38.8843 52.347 42.7391 56.5174 43.0883 60.9904C42.4699 61.0412 41.8516 61.0792 41.2332 61.0874C31.0324 61.0761 20.8315 61.0912 10.6342 61.0792C10.6299 68.3105 10.5918 75.5414 10.6536 82.773C21.481 82.7571 32.3041 82.7494 43.1311 82.7773C42.8238 87.4125 38.9111 91.5258 34.1945 91.7078C26.4321 91.8168 18.6696 91.7117 10.9068 91.7586C8.97398 91.8245 6.98281 91.5836 5.24093 90.703C2.23862 89.171 0.114833 86.0477 0.010608 82.657C0.00205217 75.5266 -0.00961483 68.3997 0.0137192 61.2697ZM51.333 57.7549C52.7602 54.6471 56.027 52.3392 59.5042 52.3815C68.06 52.3897 76.6196 52.3815 85.1797 52.3854C89.6478 52.4126 93.5835 56.3149 93.8989 60.7188C82.6126 60.8779 71.3189 60.7417 60.0296 60.7848C59.9786 63.0504 60.0023 65.3159 59.9984 67.585C68.3909 67.6118 76.7873 67.5928 85.1797 67.5928C87.6683 67.6898 90.2821 68.4855 91.9773 70.4054C93.8825 72.105 94.688 74.6926 94.7502 77.1832C94.7926 79.6699 94.7926 82.1686 94.3881 84.6313C93.4625 88.6197 89.6396 91.5914 85.5605 91.7194C77.4017 91.7966 69.2379 91.7272 61.0792 91.7582C59.1545 91.7974 57.1634 91.5216 55.4557 90.5866C52.749 89.178 50.8045 86.3452 50.5365 83.3045C62.0246 83.3596 73.5166 83.3394 85.0047 83.3127C85.0319 80.8989 85.0164 78.4863 85.0164 76.0736C76.515 76.0154 68.0098 76.0655 59.5042 76.0496C54.6161 76.0888 50.2915 71.6076 50.423 66.7471C50.5941 63.7521 49.9022 60.5365 51.333 57.7549ZM259.85 53.1888C260.931 53.1617 262.024 53.119 263.101 53.2819C262.599 53.41 262.089 53.4759 261.577 53.4837C261.511 54.6518 261.503 55.8195 261.518 56.9864C261.406 56.9864 261.184 56.9864 261.075 56.9903C261.083 55.7915 261.094 54.5928 261.079 53.3979C260.776 53.422 260.173 53.4759 259.873 53.4988L259.85 53.1888ZM263.707 53.1454C263.937 53.1574 264.404 53.1807 264.638 53.1923C264.968 54.2433 265.357 55.2752 265.839 56.2722C266.291 55.2674 266.586 54.1963 267.084 53.2195C267.302 53.1884 267.737 53.1225 267.954 53.0915C267.834 54.5191 268.328 56.098 267.554 57.3976C267.414 56.1329 267.473 54.8601 267.391 53.5915C266.799 54.7751 266.52 56.1054 265.746 57.1998C265.155 56.0751 264.902 54.7941 264.194 53.7323C264.148 54.8651 264.171 56.0018 264.155 57.1377L263.739 57.0908C263.739 55.7764 263.72 54.4609 263.707 53.1454Z" fill="white"/>
</svg>
