<svg width="79" height="93" viewBox="0 0 79 93" fill="none" xmlns="http://www.w3.org/2000/svg">
<path d="M78.417 2.90625L78.1255 0L75.2104 0.58125C72.0037 1.1625 59.4687 4.35938 58.8856 4.65L56.845 5.23125V8.42813H22.155V5.52187L20.1144 4.94063C19.5314 4.94063 6.99633 1.45312 3.78969 0.871875L0.874562 0.290625L0.583049 3.19688C-0.874516 16.275 1.45759 26.4469 7.57936 33.4219C15.1587 42.1406 25.3616 42.7219 26.5277 42.7219C27.9853 44.7562 30.0259 46.5 32.0664 47.9531H29.4428V53.7656H33.2325V56.6719H34.107C33.8155 69.4594 24.1956 75.8531 24.1956 75.8531V88.0594H19.2399V93H60.6347V88.35H55.3875V76.1438C55.3875 76.1438 45.7676 69.75 45.476 56.9625H46.3506V54.0563H49.5572V48.2438H46.9336C49.2657 46.7906 51.0148 44.7562 52.7639 42.7219C54.5129 42.7219 64.4244 41.5594 71.4207 33.4219C77.5425 26.1562 79.8746 15.9844 78.417 2.90625ZM11.6605 29.9344C6.99633 24.7031 4.95574 16.8563 5.83028 6.975C9.03692 7.84688 13.9926 9.00937 16.6163 9.59062V10.1719L12.8266 12.4969L15.7417 17.1469L17.4908 16.275C18.0738 22.0875 19.2399 29.6438 22.4465 36.6188C19.2399 35.7469 15.1587 34.0031 11.6605 29.9344ZM67.3395 29.6437C63.8414 33.7125 59.7602 35.4562 56.5535 36.3281C59.7602 29.3531 60.9262 21.5063 61.5093 15.9844L62.9668 16.8563L65.8819 12.2062L62.3838 9.88125V9.3C65.0074 8.71875 69.9631 7.55625 73.1698 6.68437C73.7528 16.5656 71.7122 24.4125 67.3395 29.6437Z" fill="#FFFF00"/>
</svg>
