<svg width="79" height="87" viewBox="0 0 79 87" fill="none" xmlns="http://www.w3.org/2000/svg">
<path d="M9.25847 76.8387H60.4662L58.0254 68.8523C58.3957 69.1582 79 87 79 87V8.97188C78.7643 4.1291 74.6233 0 69.489 0L9.2753 0.0169922C4.15789 0.0169922 0 4.14609 0 8.98887V67.8668C0 72.9814 4.1579 76.8387 9.25847 76.8387ZM47.1509 20.5945L47.033 20.6455L47.0835 20.5945H47.1509ZM19.7458 25.1994C26.3277 20.3566 32.4215 20.5945 32.4215 20.5945L32.9097 21.0873C24.8464 23.0244 21.2103 26.6607 21.2103 26.6607C21.5807 26.5758 37.8419 17.1111 57.554 26.8986C57.554 26.8986 53.9011 23.5002 46.3428 21.3252L47.0162 20.6625C48.0599 20.6625 53.5981 20.8664 59.5067 25.2334C59.5067 25.2334 66.1223 36.6521 66.1223 50.6877C65.9035 50.4158 62.0149 56.7199 51.9989 56.9408C51.9989 56.9408 50.2987 55.0037 49.1036 53.3215C54.9616 51.6223 57.15 48.2238 57.15 48.2238C45.7537 55.4625 35.7714 54.341 23.8195 49.4473C23.7017 49.4473 23.6512 49.3963 23.6007 49.3453V49.3283C23.5502 49.2773 23.4997 49.2264 23.3818 49.2264H23.163C22.4223 48.7336 21.9342 48.4957 21.9342 48.4957C21.9342 48.4957 24.1225 51.8941 29.7449 53.5934C28.2636 55.2926 26.7991 57.2297 26.7991 57.2297C16.7999 56.9918 13.147 50.6877 13.147 50.6877C13.1639 36.6012 19.7458 25.1994 19.7458 25.1994Z" fill="#93C11A"/>
<path d="M47.7906 46.2868C50.3493 46.2868 52.4198 44.1118 52.4198 41.427C52.4198 38.7592 50.3493 36.5842 47.7906 36.5842V36.6012C45.2487 36.6012 43.1614 38.7762 43.1614 41.444C43.1614 44.1118 45.2319 46.2868 47.7906 46.2868Z" fill="#93C11A"/>
<path d="M31.2094 46.2868C33.7681 46.2868 35.8387 44.1118 35.8387 41.427C35.8387 38.7592 33.7681 36.5842 31.2263 36.5842L31.2094 36.6012C28.6507 36.6012 26.5802 38.7762 26.5802 41.444C26.5802 44.1118 28.6507 46.2868 31.2094 46.2868Z" fill="#93C11A"/>
</svg>
