<svg width="322" height="63" viewBox="0 0 322 63" fill="none" xmlns="http://www.w3.org/2000/svg">
<path d="M90.0763 44.17L89.9222 23.7742C89.9222 19.7568 90.3845 16.203 85.7621 16.0485V15.4304H99.6293C112.88 15.4304 124.282 18.2117 124.128 34.8992C123.974 42.0068 118.889 48.8054 112.11 50.8141C110.107 51.4322 107.487 51.7412 104.406 51.7412H100.246H85.9162V51.1231C90.3845 50.9686 90.0763 48.1874 90.0763 44.17ZM96.0854 17.5936V42.7794C96.0854 44.6335 96.0854 46.3332 96.2395 47.1058C96.8558 49.887 99.7834 49.7325 103.173 50.0415C112.418 50.6596 118.427 43.5519 118.119 34.4356C117.657 20.8384 107.796 17.2846 96.0854 17.5936Z" fill="white"/>
<path d="M177.902 33.5087C177.748 35.9809 177.286 38.2986 176.361 40.6163C173.588 48.033 165.884 52.6684 157.872 52.5139C146.161 52.3594 138.92 44.6337 138.612 33.8177C138.457 25.6284 143.234 18.9843 150.322 16.0486C153.249 14.8125 156.331 14.658 159.412 14.658C170.506 14.658 178.672 22.5382 177.902 33.5087ZM149.243 19.6024C145.699 22.8472 145.237 28.8732 145.237 34.1267C145.237 41.6979 151.246 50.6597 160.337 50.1962C169.428 49.7326 171.122 41.5434 171.431 34.1267C171.739 27.7916 168.503 21.1475 162.648 18.3663C158.796 16.5121 152.633 16.5121 149.243 19.6024Z" fill="white"/>
<path d="M204.095 18.3663H194.388C192.077 18.8299 191.153 20.5295 190.382 22.2292C190.382 19.7569 190.845 17.2847 191.461 14.8125C192.385 15.4306 193.464 15.5851 194.851 15.7396L220.274 15.5851C221.044 15.7396 221.815 15.5851 222.585 15.1215C222.739 16.6667 222.739 19.2934 222.585 22.6927L221.969 22.5382C222.123 20.066 220.274 19.1389 218.425 18.5208H209.95V43.8611C209.95 45.7153 210.105 48.342 210.259 49.2691C210.567 50.9688 212.262 51.5868 213.802 51.4323C214.573 51.4323 215.343 51.2778 215.343 51.8958H199.627C199.627 50.3507 201.938 52.0503 203.017 50.5052C203.479 49.7326 203.787 48.8056 203.941 47.5694C203.941 46.9514 204.095 44.9427 204.095 43.7066V18.3663Z" fill="white"/>
<path d="M271.582 51.5867H258.948V50.9687H260.643L257.561 43.552H242.77L241.075 49.269C240.304 51.8958 244.927 50.1961 244.464 51.5867H232.446V50.9687C234.295 50.9687 235.374 51.5867 236.76 49.5781C238.609 46.9513 239.688 43.0885 240.921 39.9982L251.706 12.9583L263.108 41.0798L272.969 41.3888C272.969 41.3888 273.431 41.8524 272.661 41.8524C270.35 42.0069 268.655 41.8524 267.885 42.6249C267.114 43.552 263.724 43.3975 263.724 43.3975C264.957 46.4878 266.652 49.4235 267.576 50.3506C269.117 51.7412 271.582 50.3506 271.582 51.5867ZM256.791 41.2343L250.319 24.0833L243.848 41.2343H256.791Z" fill="white"/>
<path fill-rule="evenodd" clip-rule="evenodd" d="M299.471 24.5469C298.7 23.6198 298.7 20.375 298.7 17.1302C304.093 13.8854 312.259 13.7309 317.036 17.7482C320.426 21.1476 320.888 25.783 318.269 31.6545C315.033 37.9896 309.332 42.625 303.631 47.2604C303.015 47.8785 302.861 47.8785 303.631 47.8785H315.495C317.96 47.1059 319.963 45.8698 320.888 42.625H321.35C321.35 45.7153 320.734 49.2691 319.193 51.7413L298.238 51.8958C297.006 51.8958 295.619 51.5868 296.543 50.6597C301.936 45.7153 308.87 40.6163 312.105 33.5087C314.108 29.0278 314.571 24.7014 313.03 20.993C312.414 19.4479 311.335 18.2118 309.794 17.5937C304.864 15.7396 299.625 18.3663 299.933 24.2378L299.471 24.5469Z" fill="white"/>
<path fill-rule="evenodd" clip-rule="evenodd" d="M12.5742 37.835C13.1905 38.1441 13.4987 38.6076 14.115 39.0712L18.8915 43.5521C19.8159 44.4791 22.4353 47.1059 23.3598 48.1875C23.9761 48.96 24.2843 49.1146 24.7465 49.8871C24.5924 49.8871 22.2812 50.5052 21.0486 50.9687C18.4292 51.8958 15.9639 53.4409 13.4987 52.5139C13.1905 52.3593 11.4956 50.8142 10.8793 50.3507C10.4171 50.0416 10.1089 49.7326 9.49258 49.4236C8.10586 48.4965 7.64362 49.1146 9.49258 44.6337C9.95482 43.5521 10.4171 42.4705 10.8793 41.2343C11.4956 40.3073 11.9579 38.7621 12.5742 37.835ZM46.6258 11.2587C47.5503 11.5677 50.0156 12.9583 50.4778 13.7309C50.9401 14.3489 50.786 14.3489 50.6319 15.276L49.7074 22.8472C48.3207 22.8472 48.7829 22.6927 47.8585 22.2291C46.4717 21.3021 41.6953 17.7482 40.1545 16.5121L37.227 14.1944C37.381 14.0399 37.227 14.0399 37.6892 14.0399L42.0034 13.1128C44.4687 12.1857 44.7769 12.0312 46.6258 11.2587ZM7.64362 12.6493C8.5681 12.0312 9.18442 12.4948 10.8793 11.2587C11.3415 10.9496 12.4201 10.9496 13.0364 11.1041C13.6527 11.2587 15.1935 12.4948 15.8099 12.8038C16.2721 13.1128 17.967 14.3489 18.2751 14.967L19.1996 16.3576C20.4323 16.3576 20.2782 16.3576 21.819 17.4392L36.6106 27.1736C39.8463 29.3368 43.5442 31.6545 46.6258 33.8177L55.7165 39.8437C55.4084 40.4618 55.1002 42.3159 54.9461 43.0885C54.1757 46.6423 53.0972 48.1875 51.5564 51.5868C49.2452 51.7413 47.3962 51.5868 45.2391 51.5868C44.4687 51.5868 44.6228 51.7413 44.3146 51.2777C42.9279 50.0416 40.6167 47.2604 39.23 45.8698C38.7678 45.4062 38.3055 44.9427 37.8433 44.4791C34.1454 40.6163 35.8402 41.6979 35.2239 40.7708L27.8281 33.8177C26.1332 32.118 24.5924 30.4184 22.8975 28.5642C22.4353 28.1007 22.2812 27.6371 21.819 27.1736L21.6649 27.0191C21.3567 27.1736 21.3567 27.1736 21.2027 27.1736L19.0455 24.7014C18.7374 24.3923 18.7374 24.3923 18.4292 24.0833L16.4262 22.0746C15.9639 21.6111 15.6558 21.1475 15.1935 20.684L13.3446 18.6753C13.0364 18.3663 12.8823 18.3663 12.5742 18.0573C11.6497 17.1302 10.8793 16.2031 10.1089 15.276C9.49258 14.5034 7.7977 13.1128 7.64362 12.6493ZM16.5803 1.67879L1.32635 1.98782C0.555949 5.0781 1.32635 3.53296 1.32635 6.62324V12.3403C1.17227 14.0399 0.710029 14.8125 0.710029 17.1302C0.710029 17.9028 0.555949 19.6024 0.864109 20.2205C1.48043 21.3021 1.48043 22.0746 1.78859 23.6198C2.09675 25.0104 2.25083 24.8559 1.63451 25.783L1.32635 28.2552L2.55899 29.4913V31.6545C1.78859 32.4271 2.71307 31.809 1.01819 33.0451L1.32635 39.9982L2.86715 41.2343L2.55899 46.9514C0.864109 48.033 1.32635 49.5781 1.32635 51.1232L1.48043 56.8403L1.17227 59.776C5.02427 60.7031 4.09979 60.3941 8.5681 60.3941C12.4201 60.3941 11.9579 60.3941 15.6558 59.9305L15.8099 60.5486C16.4262 60.5486 17.0425 60.5486 17.6588 60.3941C19.1996 60.2396 18.5833 60.085 19.1996 59.776C19.6619 59.6215 23.9761 60.7031 24.5924 60.8576C25.0546 60.3941 24.7465 60.5486 25.3628 60.2396C25.671 60.8576 26.9036 62.2482 27.3658 62.8663L28.9066 61.3212L31.6801 62.4028L32.4505 61.7847C32.7586 62.0937 32.9127 62.5573 33.529 62.7118C34.2994 62.8663 34.4535 61.4757 36.3025 61.4757L46.7799 61.1666C46.934 61.0121 46.934 61.0121 47.0881 60.8576L47.5503 60.3941C48.1666 60.8576 48.4748 61.1666 49.3993 61.1666C52.3268 61.0121 50.786 61.9392 54.4839 61.6302C55.1002 61.6302 54.9461 61.4757 55.5625 61.1666H56.7951C56.4869 60.3941 56.3329 60.5486 55.8706 60.085L62.4961 61.4757C62.342 53.75 62.4961 44.1701 62.4961 36.1354L60.6471 36.2899C60.6471 35.8264 61.4175 35.9809 61.5716 34.8993C61.5716 33.5087 61.5716 29.0278 61.4175 28.1007C61.2634 27.6371 60.0308 26.092 59.7226 25.783C60.1849 24.7014 60.1849 24.7014 60.9553 23.9288C60.9553 23.3107 60.8012 23.1562 60.493 22.5382L62.4961 21.9201C62.4961 20.8385 62.6501 16.3576 62.4961 14.967L61.7257 7.24129L62.342 5.38713V3.37845C60.6471 2.45136 60.9553 2.29685 59.7226 2.29685C58.6441 2.29685 57.2573 2.29685 56.3329 1.98782C55.1002 1.67879 55.4084 1.52428 54.0217 2.9149L53.4053 1.52428C51.4023 1.36976 44.9309 0.751709 43.3901 0.751709C41.3871 0.751709 41.6953 0.906223 41.079 3.06942L38.3055 3.37845L37.9974 2.14233H35.378L35.6862 1.83331C36.1484 1.36977 35.9943 1.52428 36.4566 0.751709H26.2873C25.9791 1.36976 25.3628 1.83331 24.5924 2.14233C23.5138 2.45136 24.1302 1.98782 23.3598 2.45136C22.8975 2.9149 22.7435 2.9149 21.973 2.9149C20.8945 2.9149 19.97 2.9149 18.8915 2.76039C18.4292 2.76039 17.967 2.76039 17.5047 2.60588C16.7343 2.29685 16.8884 2.14233 16.5803 1.67879Z" fill="white"/>
</svg>
