<svg width="25" height="31" viewBox="0 0 25 31" fill="none" xmlns="http://www.w3.org/2000/svg">
<path d="M7.68463 5.77206V0H7.61983C7.37906 0 7.14799 0.095787 6.9777 0.266075L1.14108 6.1027C0.970787 6.27299 0.875 6.50406 0.875 6.74483V6.80963H6.64729C7.21918 6.80963 7.68463 6.34418 7.68463 5.77206Z" fill="#FFFF00"/>
<path d="M21.2391 0H9.50104V5.77206C9.50104 7.34557 8.2208 8.6258 6.64729 8.6258H0.875V28.1463C0.875 29.7198 2.15524 31 3.72874 31H21.2391C22.8081 31 24.0928 29.7314 24.0928 28.1463V2.85374C24.0928 1.28473 22.8242 0 21.2391 0ZM7.95047 15.8306C8.30524 15.4759 8.8802 15.4759 9.23496 15.8306L11.5757 18.1714V11.6089C11.5757 11.1073 11.9823 10.7007 12.4839 10.7007C12.9856 10.7007 13.3921 11.1073 13.3921 11.6089V18.1714L15.7329 15.8306C16.0874 15.4759 16.6626 15.4759 17.0171 15.8306C17.3719 16.1852 17.3719 16.7604 17.0171 17.1149L13.126 21.0062C12.7713 21.361 12.1963 21.3607 11.8418 21.0062L7.95047 17.1149C7.59594 16.7604 7.59594 16.1852 7.95047 15.8306ZM16.375 25.1634H8.59283C8.09119 25.1634 7.68463 24.7566 7.68463 24.2552C7.68463 23.7535 8.09119 23.347 8.59283 23.347H16.375C16.8766 23.347 17.2832 23.7535 17.2832 24.2552C17.2832 24.7566 16.8766 25.1634 16.375 25.1634Z" fill="#FFFF00"/>
</svg>
