<svg width="223" height="84" viewBox="0 0 223 84" fill="none" xmlns="http://www.w3.org/2000/svg">
<path d="M156.463 45.5493V83.1493H148.082L130.065 58.7327V83.1493H121.997V49.0597L120.195 45.5493H130.535L148.473 70.356V45.5493H156.463Z" fill="white"/>
<path d="M73.1949 83.8514C75.9366 83.8514 78.5216 83.3834 80.8716 82.4473C83.2216 81.5112 85.2583 80.185 86.9033 78.5469C88.6266 76.9087 89.9583 74.9585 90.8983 72.6962C91.6033 71.0581 92.0733 69.3419 92.2299 67.5477C92.3083 66.8456 92.4649 64.0373 92.3083 62.3211H73.2733L69.9049 69.1079H83.4566C82.9083 71.2141 81.7333 73.0083 79.9316 74.3344C78.0516 75.6606 75.8583 76.3626 73.2733 76.2846C71.6283 76.2846 70.0616 75.9726 68.6516 75.3485C67.2416 74.7245 65.9883 73.8664 64.8916 72.7743C63.7949 71.6821 63.0116 70.434 62.3849 68.9519C61.7583 67.4697 61.5233 65.9875 61.5233 64.2714C61.5233 62.6332 61.8366 61.073 62.4633 59.6689C63.0899 58.1867 63.9516 56.9386 64.9699 55.9245C66.0666 54.8323 67.3199 54.0523 68.7299 53.4282C70.1399 52.8041 71.7066 52.5701 73.3516 52.5701C75.6233 52.5701 77.5816 53.0382 79.3049 54.0523C81.0283 54.9884 82.3599 56.3925 83.2999 58.2647L90.8199 54.7543C89.2533 51.712 86.9816 49.2938 83.8483 47.5776C80.7933 45.8614 77.3466 45.0033 73.4299 44.9253C70.6883 44.9253 68.0249 45.3933 65.5966 46.4075C63.1683 47.4216 60.9749 48.8257 59.1733 50.5419C57.3716 52.3361 55.8833 54.3643 54.7866 56.7045C53.6899 59.0448 53.1416 61.5411 53.1416 64.2714C53.1416 66.9236 53.6116 69.4979 54.7083 71.8382C55.7266 74.1784 57.1366 76.2846 58.9383 78.0788C60.7399 79.873 62.8549 81.2772 65.2833 82.2913C67.7899 83.3054 70.3749 83.8514 73.1949 83.8514Z" fill="white"/>
<path d="M10.7634 45.5493H0.580078L2.53841 49.4497V79.3269L0.580078 83.1493H24.0017L26.1167 75.8165H10.7634V45.5493Z" fill="white"/>
<path d="M28.9368 83.1493H51.7318V75.8165H37.2401V67.5477H48.4418L50.4784 60.5269H37.2401V52.8821H51.7318V45.5493H28.9368V83.1493Z" fill="white"/>
<path d="M95.2068 83.1493H118.002V75.8165H103.51V67.5477H114.79L116.748 60.5269H103.51V52.8821H118.002V45.5493H95.2068V83.1493Z" fill="white"/>
<path d="M109.855 39.6207C112.597 39.6207 115.182 39.1527 117.532 38.2166C119.882 37.2805 121.918 35.9543 123.563 34.3162C125.287 32.678 126.618 30.7278 127.558 28.4655C128.263 26.8274 128.733 25.1112 128.89 23.317C128.968 22.6149 129.125 19.8066 128.968 18.0904H109.933L106.565 24.8772H120.117C119.568 26.9834 118.393 28.7776 116.592 30.1037C114.712 31.4298 112.518 32.0539 109.933 32.0539C108.288 32.0539 106.722 31.7419 105.312 31.1178C103.902 30.4937 102.648 29.6357 101.552 28.5435C100.455 27.4514 99.6718 26.2033 99.0451 24.7211C98.4184 23.239 98.1834 21.7568 98.1834 20.0406C98.1834 18.4025 98.4968 16.8423 99.1234 15.4381C99.7501 13.956 100.612 12.7079 101.63 11.6937C102.727 10.6016 103.98 9.82155 105.39 9.19748C106.8 8.57342 108.367 8.33939 110.012 8.33939C112.283 8.33939 114.242 8.80744 115.965 9.82155C117.688 10.7577 119.02 12.1618 119.96 14.034L127.48 10.5236C125.913 7.4813 123.642 5.06304 120.508 3.34686C117.453 1.63068 114.007 0.772588 110.09 0.69458C107.348 0.69458 104.685 1.16263 102.257 2.17674C99.7501 3.19085 97.6351 4.59499 95.8334 6.31118C94.0318 8.10537 92.5434 10.1336 91.4468 12.4738C90.3501 14.8141 89.8018 17.3103 89.8018 20.0406C89.8018 22.6929 90.2718 25.2672 91.3684 27.6074C92.3868 29.9477 93.7968 32.0539 95.5984 33.8481C97.4001 35.6423 99.5151 37.0464 101.943 38.0606C104.372 39.0747 107.035 39.6207 109.855 39.6207Z" fill="white"/>
<path d="M10.7634 1.3186H0.580078L2.53841 5.21902V35.0962L0.580078 38.9966H24.0017L26.1167 31.5858H10.7634V1.3186Z" fill="white"/>
<path d="M28.9368 38.9966H51.7318V31.5858H37.2401V23.3169H48.4418L50.4784 16.2962H37.2401V8.65138H51.7318V1.3186H28.9368V38.9966Z" fill="white"/>
<path d="M166.49 38.9966H189.285V31.5858H174.793V23.3169H185.995L188.032 16.2962H174.793V8.65138H189.285V1.3186H166.49V38.9966Z" fill="white"/>
<path d="M68.5734 24.4091L73.5867 11.7717L78.365 24.4091H68.5734ZM77.2684 1.3186H65.5184L68.025 6.15512L54.395 38.9966H62.855L65.7534 31.6638H81.1067L84.0834 38.9966H92.7L77.2684 1.3186Z" fill="white"/>
<path d="M210.905 11.6938V28.6216H215.213V22.849H219.6L220.697 19.1826H215.213V15.5163H221.48V11.6938H210.905Z" fill="white"/>
<path d="M200.408 24.8773C197.745 24.8773 195.552 22.771 195.552 20.1968C195.552 17.6225 197.745 15.5163 200.408 15.5163C203.072 15.5163 205.265 17.6225 205.265 20.1968C205.187 22.771 203.072 24.8773 200.408 24.8773ZM200.408 11.3818C195.395 11.3818 191.4 15.3603 191.4 20.1968C191.4 25.0333 195.473 29.0117 200.408 29.0117C205.422 29.0117 209.417 25.0333 209.417 20.1968C209.417 15.2822 205.343 11.3818 200.408 11.3818Z" fill="white"/>
<path d="M147.377 39.6207C144.948 39.6207 142.755 39.2306 140.875 38.5286C138.995 37.8265 137.35 36.7344 136.018 35.4082C134.687 34.0821 133.668 32.3659 132.963 30.4937C132.258 28.5435 131.867 26.4373 131.867 24.019V1.39661H140.248V23.629C140.248 26.2033 140.875 28.1535 142.05 29.6356C143.303 31.1178 145.027 31.8199 147.377 31.8199C149.727 31.8199 151.45 31.1178 152.703 29.6356C153.957 28.1535 154.505 26.1252 154.505 23.629V1.3186H162.887V23.941C162.887 26.2813 162.495 28.4655 161.79 30.4157C161.085 32.3659 160.067 34.0041 158.735 35.3302C157.403 36.6564 155.758 37.7485 153.878 38.4506C151.92 39.2306 149.805 39.6207 147.377 39.6207Z" fill="white"/>
<path d="M211.532 60.839L206.283 59.8249C203.933 59.3568 202.68 58.1087 202.68 56.2365C202.68 53.6622 205.422 52.1021 208.007 52.1021C208.869 52.1021 213.333 52.3361 214.273 56.6265L221.48 53.1942C220.383 50.2299 217.25 44.9253 207.928 44.9253C200.487 44.9253 194.377 50.2299 194.377 56.8606C194.377 62.3992 198.215 66.5336 204.638 67.7817L209.887 68.7958C212.472 69.2639 214.038 70.746 214.038 72.6182C214.038 75.0365 211.923 76.5187 208.477 76.5967C204.325 76.6747 200.957 73.6323 200.487 70.668L193.594 74.4124C195.16 79.405 200.095 83.9294 208.477 83.9294C213.803 83.9294 217.015 81.9012 218.817 80.2631C221.167 78.1568 222.498 75.1925 222.498 72.1502C222.42 66.4556 218.268 62.1651 211.532 60.839Z" fill="white"/>
<path d="M183.41 68.7958C182.783 70.1219 182 71.3701 180.982 72.3062C179.963 73.3203 178.788 74.1003 177.378 74.7244C175.968 75.3485 174.48 75.5825 172.913 75.5825H168.37V53.1941H172.992C174.558 53.1941 176.047 53.5062 177.457 54.0522C178.867 54.6763 180.042 55.4564 181.06 56.4705C182.078 57.4846 182.862 58.6547 183.488 60.0589C184.115 61.463 184.35 62.8672 184.35 64.4273C184.272 65.9875 183.958 67.4696 183.41 68.7958ZM191.165 57.0165C190.147 54.7543 188.737 52.7261 186.935 51.0879C185.133 49.3717 183.097 48.1236 180.668 47.1095C178.318 46.1734 174.872 45.5493 173.07 45.5493H160.067V83.1493H173.148C175.812 83.1493 178.397 82.6813 180.747 81.7452C183.097 80.8091 185.212 79.4829 187.013 77.7667C188.815 76.0506 190.225 74.1004 191.243 71.8381C192.262 69.5759 192.81 67.0796 192.81 64.4273C192.732 61.775 192.262 59.3568 191.165 57.0165Z" fill="white"/>
</svg>
