<svg width="371" height="153" viewBox="0 0 371 153" fill="none" xmlns="http://www.w3.org/2000/svg">
<path d="M81.1787 148.337C78.3233 148.337 75.993 145.884 75.993 142.878V6.96611C75.993 3.96005 78.3233 1.50684 81.1787 1.50684H274.788C277.644 1.50684 279.974 3.96005 279.974 6.96611V142.878C279.974 145.884 277.644 148.337 274.788 148.337H81.1787Z" fill="#0E0E0E"/>
<path d="M274.788 2.19831C277.283 2.19831 279.318 4.34055 279.318 6.96653V142.878C279.318 145.504 277.283 147.646 274.788 147.646H81.1787C78.6843 147.646 76.6494 145.504 76.6494 142.878V6.96653C76.6494 4.34055 78.6843 2.19831 81.1787 2.19831H274.788ZM274.788 0.833496H81.1787C77.9623 0.833496 75.353 3.5804 75.353 6.96653V142.878C75.353 146.264 77.9623 149.011 81.1787 149.011H274.788C278.005 149.011 280.614 146.264 280.614 142.878V6.96653C280.631 3.5804 278.021 0.833496 274.788 0.833496Z" fill="#222222"/>
<path d="M280.631 140.546H75.353V149.702H280.631V140.546Z" fill="#222222"/>
<path d="M274.788 1.24812C277.792 1.24812 280.237 3.82227 280.237 6.9838V142.895C280.237 146.057 277.792 148.631 274.788 148.631H81.1787C78.1756 148.631 75.7305 146.057 75.7305 142.895V6.96653C75.7305 3.80499 78.1756 1.23085 81.1787 1.23085H274.788V1.24812ZM274.788 0.833496H81.1787C77.9623 0.833496 75.353 3.5804 75.353 6.96653V142.878C75.353 146.264 77.9623 149.011 81.1787 149.011H274.788C278.005 149.011 280.614 146.264 280.614 142.878V6.96653C280.631 3.5804 278.021 0.833496 274.788 0.833496Z" fill="#7D7D7D"/>
<path d="M305 144.917H51V149.011H305V144.917Z" fill="url(#paint0_linear)"/>
<path d="M195.92 144.641H160.08V148.009H195.92V144.641Z" fill="url(#paint1_linear)"/>
<path d="M275.609 8.9707H80.3911V137.436H275.609V8.9707Z" fill="#676767"/>
<path d="M169.828 143.621V141.531H170.221L170.697 143.016C170.747 143.155 170.763 143.258 170.796 143.327C170.812 143.258 170.861 143.137 170.911 142.999L171.387 141.548H171.748V143.638H171.501V141.894L170.927 143.638H170.697L170.123 141.859V143.638H169.828V143.621Z" fill="#808080"/>
<path d="M173.06 143.431C172.978 143.518 172.88 143.57 172.798 143.604C172.716 143.639 172.617 143.656 172.535 143.656C172.371 143.656 172.256 143.621 172.174 143.535C172.092 143.449 172.043 143.345 172.043 143.224C172.043 143.155 172.059 143.086 172.092 143.017C172.125 142.948 172.174 142.913 172.223 142.861C172.273 142.827 172.338 142.792 172.404 142.775C172.453 142.758 172.519 142.74 172.617 142.74C172.814 142.723 172.962 142.688 173.044 142.654C173.044 142.619 173.044 142.602 173.044 142.585C173.044 142.481 173.028 142.412 172.978 142.36C172.913 142.308 172.831 142.274 172.699 142.274C172.585 142.274 172.502 142.291 172.437 142.343C172.388 142.377 172.338 142.464 172.322 142.567L172.092 142.533C172.109 142.429 172.141 142.343 172.207 142.274C172.256 142.205 172.322 142.153 172.42 142.118C172.519 142.084 172.617 142.066 172.749 142.066C172.863 142.066 172.978 142.084 173.044 142.118C173.126 142.153 173.175 142.187 173.208 142.239C173.241 142.291 173.274 142.343 173.29 142.412C173.307 142.464 173.307 142.533 173.307 142.654V142.999C173.307 143.241 173.307 143.397 173.323 143.449C173.339 143.518 173.356 143.57 173.389 143.639H173.142C173.077 143.57 173.06 143.501 173.06 143.431ZM173.028 142.861C172.946 142.896 172.814 142.93 172.634 142.965C172.535 142.982 172.47 142.999 172.42 143.017C172.388 143.034 172.355 143.069 172.322 143.103C172.306 143.138 172.289 143.172 172.289 143.224C172.289 143.293 172.322 143.345 172.371 143.397C172.42 143.449 172.486 143.466 172.585 143.466C172.683 143.466 172.765 143.449 172.831 143.397C172.896 143.362 172.962 143.293 172.995 143.224C173.028 143.172 173.028 143.086 173.028 142.965V142.861Z" fill="#808080"/>
<path d="M174.603 143.068L174.849 143.103C174.816 143.275 174.751 143.414 174.652 143.517C174.537 143.621 174.406 143.673 174.258 143.673C174.062 143.673 173.897 143.604 173.783 143.465C173.668 143.327 173.602 143.137 173.602 142.878C173.602 142.722 173.635 142.567 173.684 142.446C173.733 142.325 173.815 142.239 173.914 142.169C174.012 142.1 174.127 142.083 174.258 142.083C174.423 142.083 174.537 142.118 174.636 142.204C174.734 142.29 174.8 142.411 174.833 142.55L174.603 142.584C174.587 142.48 174.537 142.411 174.488 142.36C174.439 142.308 174.357 142.29 174.275 142.29C174.16 142.29 174.062 142.342 173.979 142.429C173.897 142.515 173.865 142.671 173.865 142.861C173.865 143.068 173.897 143.206 173.979 143.31C174.062 143.396 174.144 143.448 174.275 143.448C174.373 143.448 174.455 143.414 174.521 143.362C174.537 143.293 174.587 143.206 174.603 143.068Z" fill="#808080"/>
<path d="M175.062 143.621V141.531H175.801C175.949 141.531 176.08 141.548 176.162 141.6C176.26 141.634 176.326 141.704 176.375 141.79C176.425 141.876 176.457 141.963 176.457 142.066C176.457 142.153 176.441 142.239 176.392 142.325C176.342 142.412 176.277 142.464 176.178 142.515C176.293 142.55 176.392 142.619 176.457 142.705C176.523 142.792 176.556 142.896 176.556 143.016C176.556 143.12 176.539 143.206 176.49 143.293C176.457 143.379 176.408 143.448 176.342 143.483C176.277 143.535 176.211 143.569 176.129 143.587C176.047 143.604 175.932 143.621 175.817 143.621H175.062ZM175.325 142.412H175.752C175.867 142.412 175.949 142.412 175.998 142.395C176.063 142.377 176.113 142.343 176.146 142.291C176.178 142.239 176.195 142.187 176.195 142.101C176.195 142.032 176.178 141.963 176.146 141.911C176.113 141.859 176.063 141.824 176.014 141.807C175.949 141.79 175.85 141.773 175.719 141.773H175.325V142.412ZM175.325 143.379H175.817C175.899 143.379 175.965 143.379 175.998 143.362C176.063 143.345 176.113 143.327 176.146 143.31C176.178 143.276 176.211 143.241 176.244 143.189C176.277 143.137 176.277 143.086 176.277 143.016C176.277 142.93 176.26 142.878 176.228 142.809C176.195 142.757 176.129 142.705 176.063 142.688C175.998 142.671 175.899 142.654 175.768 142.654H175.309V143.379H175.325Z" fill="#808080"/>
<path d="M176.802 142.861C176.802 142.585 176.868 142.377 177.015 142.239C177.147 142.136 177.294 142.066 177.475 142.066C177.672 142.066 177.836 142.136 177.951 142.274C178.082 142.412 178.148 142.602 178.148 142.844C178.148 143.034 178.115 143.189 178.066 143.31C178.016 143.414 177.934 143.501 177.819 143.57C177.705 143.639 177.606 143.656 177.475 143.656C177.278 143.656 177.114 143.587 176.983 143.449C176.868 143.31 176.802 143.12 176.802 142.861ZM177.048 142.861C177.048 143.051 177.081 143.207 177.163 143.293C177.245 143.397 177.344 143.431 177.475 143.431C177.59 143.431 177.688 143.38 177.77 143.293C177.852 143.189 177.885 143.051 177.885 142.844C177.885 142.654 177.852 142.516 177.77 142.412C177.688 142.308 177.59 142.274 177.475 142.274C177.36 142.274 177.245 142.326 177.163 142.412C177.097 142.533 177.048 142.671 177.048 142.861Z" fill="#808080"/>
<path d="M178.344 142.861C178.344 142.585 178.427 142.377 178.574 142.239C178.689 142.136 178.853 142.066 179.017 142.066C179.214 142.066 179.378 142.136 179.51 142.274C179.641 142.412 179.707 142.602 179.707 142.844C179.707 143.034 179.674 143.189 179.624 143.31C179.575 143.414 179.493 143.501 179.378 143.57C179.263 143.639 179.149 143.656 179.034 143.656C178.837 143.656 178.673 143.587 178.541 143.449C178.41 143.31 178.344 143.12 178.344 142.861ZM178.591 142.861C178.591 143.051 178.623 143.207 178.706 143.293C178.788 143.397 178.886 143.431 179.001 143.431C179.116 143.431 179.231 143.38 179.296 143.293C179.378 143.189 179.411 143.051 179.411 142.844C179.411 142.654 179.378 142.516 179.296 142.412C179.214 142.308 179.116 142.274 179.001 142.274C178.886 142.274 178.788 142.326 178.706 142.412C178.64 142.533 178.591 142.671 178.591 142.861Z" fill="#808080"/>
<path d="M179.986 143.621V141.531H180.232V142.723L180.806 142.118H181.118L180.56 142.671L181.167 143.621H180.872L180.396 142.844L180.232 143.016V143.621H179.986Z" fill="#808080"/>
<path d="M182.168 143.621V141.531H182.923C183.054 141.531 183.153 141.531 183.218 141.548C183.317 141.565 183.399 141.6 183.465 141.652C183.53 141.703 183.58 141.773 183.629 141.859C183.662 141.945 183.694 142.049 183.694 142.153C183.694 142.325 183.645 142.481 183.53 142.602C183.415 142.723 183.235 142.792 182.956 142.792H182.447V143.638H182.168V143.621ZM182.431 142.533H182.94C183.104 142.533 183.235 142.498 183.301 142.429C183.366 142.36 183.415 142.274 183.415 142.153C183.415 142.066 183.399 141.997 183.35 141.928C183.301 141.859 183.251 141.824 183.186 141.807C183.136 141.79 183.054 141.79 182.94 141.79H182.431V142.533Z" fill="#808080"/>
<path d="M183.973 143.622V142.101H184.187V142.326C184.236 142.222 184.302 142.153 184.334 142.118C184.384 142.084 184.433 142.066 184.499 142.066C184.581 142.066 184.663 142.101 184.745 142.153L184.663 142.395C184.597 142.36 184.548 142.343 184.482 142.343C184.433 142.343 184.384 142.36 184.334 142.395C184.285 142.429 184.269 142.481 184.236 142.533C184.203 142.619 184.203 142.723 184.203 142.827V143.622H183.973Z" fill="#808080"/>
<path d="M184.81 142.861C184.81 142.585 184.876 142.377 185.024 142.239C185.139 142.136 185.303 142.066 185.483 142.066C185.68 142.066 185.844 142.136 185.959 142.274C186.09 142.412 186.156 142.602 186.156 142.844C186.156 143.034 186.123 143.189 186.074 143.31C186.025 143.414 185.943 143.501 185.828 143.57C185.729 143.639 185.614 143.656 185.483 143.656C185.286 143.656 185.122 143.587 184.991 143.449C184.876 143.31 184.81 143.12 184.81 142.861ZM185.073 142.861C185.073 143.051 185.106 143.207 185.188 143.293C185.27 143.397 185.368 143.431 185.483 143.431C185.598 143.431 185.696 143.38 185.779 143.293C185.861 143.189 185.893 143.051 185.893 142.844C185.893 142.654 185.844 142.516 185.779 142.412C185.696 142.308 185.598 142.274 185.483 142.274C185.368 142.274 185.253 142.326 185.188 142.412C185.106 142.533 185.073 142.671 185.073 142.861Z" fill="#808080"/>
<path d="M305 149.028H51V152.587H305V149.028Z" fill="url(#paint2_linear)"/>
<path d="M305 144.381H51V145.21H305V144.381Z" fill="url(#paint3_linear)"/>
<defs>
<linearGradient id="paint0_linear" x1="51.0048" y1="146.968" x2="304.994" y2="146.968" gradientUnits="userSpaceOnUse">
<stop stop-color="#EBEBEA"/>
<stop offset="0.02" stop-color="#5B5A5A"/>
<stop offset="0.1" stop-color="#B8B8B8"/>
<stop offset="0.5" stop-color="#B8B8B8"/>
<stop offset="0.9" stop-color="#B8B8B8"/>
<stop offset="0.98" stop-color="#5B5A5A"/>
<stop offset="1" stop-color="#EBEBEA"/>
</linearGradient>
<linearGradient id="paint1_linear" x1="160.076" y1="146.333" x2="195.918" y2="146.333" gradientUnits="userSpaceOnUse">
<stop stop-color="#5B5A5A"/>
<stop offset="0.15" stop-color="#E0E0E0"/>
<stop offset="0.5" stop-color="#E0E0E0"/>
<stop offset="0.85" stop-color="#E0E0E0"/>
<stop offset="0.9944" stop-color="#FBFBFA"/>
<stop offset="1" stop-color="#FBFBFA"/>
</linearGradient>
<linearGradient id="paint2_linear" x1="177.998" y1="152.576" x2="177.998" y2="149.022" gradientUnits="userSpaceOnUse">
<stop stop-color="#323333"/>
<stop offset="0.9944" stop-color="#656564"/>
<stop offset="1" stop-color="#656564"/>
</linearGradient>
<linearGradient id="paint3_linear" x1="51.0048" y1="144.777" x2="304.994" y2="144.777" gradientUnits="userSpaceOnUse">
<stop stop-color="#EBEBEA"/>
<stop offset="0.01" stop-color="#C8C8C8"/>
<stop offset="0.5" stop-color="#C8C8C8"/>
<stop offset="0.99" stop-color="#C8C8C8"/>
<stop offset="1" stop-color="#EBEBEA"/>
</linearGradient>
</defs>
</svg>
