<svg width="254" height="153" viewBox="0 0 254 153" fill="none" xmlns="http://www.w3.org/2000/svg">
<path d="M30.1787 148.337C27.3233 148.337 24.993 145.884 24.993 142.878V6.96611C24.993 3.96005 27.3233 1.50684 30.1787 1.50684H223.788C226.644 1.50684 228.974 3.96005 228.974 6.96611V142.878C228.974 145.884 226.644 148.337 223.788 148.337H30.1787Z" fill="#0E0E0E"/>
<path d="M223.788 2.19831C226.283 2.19831 228.318 4.34055 228.318 6.96653V142.878C228.318 145.504 226.283 147.646 223.788 147.646H30.1787C27.6843 147.646 25.6494 145.504 25.6494 142.878V6.96653C25.6494 4.34055 27.6843 2.19831 30.1787 2.19831H223.788ZM223.788 0.833496H30.1787C26.9623 0.833496 24.353 3.5804 24.353 6.96653V142.878C24.353 146.264 26.9623 149.011 30.1787 149.011H223.788C227.005 149.011 229.614 146.264 229.614 142.878V6.96653C229.631 3.5804 227.021 0.833496 223.788 0.833496Z" fill="#222222"/>
<path d="M229.631 140.546H24.353V149.702H229.631V140.546Z" fill="#222222"/>
<path d="M223.788 1.24812C226.792 1.24812 229.237 3.82227 229.237 6.9838V142.895C229.237 146.057 226.792 148.631 223.788 148.631H30.1787C27.1756 148.631 24.7305 146.057 24.7305 142.895V6.96653C24.7305 3.80499 27.1756 1.23085 30.1787 1.23085H223.788V1.24812ZM223.788 0.833496H30.1787C26.9623 0.833496 24.353 3.5804 24.353 6.96653V142.878C24.353 146.264 26.9623 149.011 30.1787 149.011H223.788C227.005 149.011 229.614 146.264 229.614 142.878V6.96653C229.631 3.5804 227.021 0.833496 223.788 0.833496Z" fill="#7D7D7D"/>
<path d="M254 144.917H0V149.011H254V144.917Z" fill="url(#paint0_linear)"/>
<path d="M144.92 144.641H109.08V148.009H144.92V144.641Z" fill="url(#paint1_linear)"/>
<path d="M224.609 8.9707H29.3911V137.436H224.609V8.9707Z" fill="#676767"/>
<path d="M118.828 143.621V141.531H119.221L119.697 143.016C119.747 143.155 119.763 143.258 119.796 143.327C119.812 143.258 119.861 143.137 119.911 142.999L120.387 141.548H120.748V143.638H120.501V141.894L119.927 143.638H119.697L119.123 141.859V143.638H118.828V143.621Z" fill="#808080"/>
<path d="M122.06 143.431C121.978 143.518 121.88 143.57 121.798 143.604C121.716 143.639 121.617 143.656 121.535 143.656C121.371 143.656 121.256 143.621 121.174 143.535C121.092 143.449 121.043 143.345 121.043 143.224C121.043 143.155 121.059 143.086 121.092 143.017C121.125 142.948 121.174 142.913 121.223 142.861C121.273 142.827 121.338 142.792 121.404 142.775C121.453 142.758 121.519 142.74 121.617 142.74C121.814 142.723 121.962 142.688 122.044 142.654C122.044 142.619 122.044 142.602 122.044 142.585C122.044 142.481 122.028 142.412 121.978 142.36C121.913 142.308 121.831 142.274 121.699 142.274C121.585 142.274 121.502 142.291 121.437 142.343C121.388 142.377 121.338 142.464 121.322 142.567L121.092 142.533C121.109 142.429 121.141 142.343 121.207 142.274C121.256 142.205 121.322 142.153 121.42 142.118C121.519 142.084 121.617 142.066 121.749 142.066C121.863 142.066 121.978 142.084 122.044 142.118C122.126 142.153 122.175 142.187 122.208 142.239C122.241 142.291 122.274 142.343 122.29 142.412C122.307 142.464 122.307 142.533 122.307 142.654V142.999C122.307 143.241 122.307 143.397 122.323 143.449C122.339 143.518 122.356 143.57 122.389 143.639H122.142C122.077 143.57 122.06 143.501 122.06 143.431ZM122.028 142.861C121.946 142.896 121.814 142.93 121.634 142.965C121.535 142.982 121.47 142.999 121.42 143.017C121.388 143.034 121.355 143.069 121.322 143.103C121.306 143.138 121.289 143.172 121.289 143.224C121.289 143.293 121.322 143.345 121.371 143.397C121.42 143.449 121.486 143.466 121.585 143.466C121.683 143.466 121.765 143.449 121.831 143.397C121.896 143.362 121.962 143.293 121.995 143.224C122.028 143.172 122.028 143.086 122.028 142.965V142.861Z" fill="#808080"/>
<path d="M123.603 143.068L123.849 143.103C123.816 143.275 123.751 143.414 123.652 143.517C123.537 143.621 123.406 143.673 123.258 143.673C123.062 143.673 122.897 143.604 122.783 143.465C122.668 143.327 122.602 143.137 122.602 142.878C122.602 142.722 122.635 142.567 122.684 142.446C122.733 142.325 122.815 142.239 122.914 142.169C123.012 142.1 123.127 142.083 123.258 142.083C123.423 142.083 123.537 142.118 123.636 142.204C123.734 142.29 123.8 142.411 123.833 142.55L123.603 142.584C123.587 142.48 123.537 142.411 123.488 142.36C123.439 142.308 123.357 142.29 123.275 142.29C123.16 142.29 123.062 142.342 122.979 142.429C122.897 142.515 122.865 142.671 122.865 142.861C122.865 143.068 122.897 143.206 122.979 143.31C123.062 143.396 123.144 143.448 123.275 143.448C123.373 143.448 123.455 143.414 123.521 143.362C123.537 143.293 123.587 143.206 123.603 143.068Z" fill="#808080"/>
<path d="M124.062 143.621V141.531H124.801C124.949 141.531 125.08 141.548 125.162 141.6C125.26 141.634 125.326 141.704 125.375 141.79C125.425 141.876 125.457 141.963 125.457 142.066C125.457 142.153 125.441 142.239 125.392 142.325C125.342 142.412 125.277 142.464 125.178 142.515C125.293 142.55 125.392 142.619 125.457 142.705C125.523 142.792 125.556 142.896 125.556 143.016C125.556 143.12 125.539 143.206 125.49 143.293C125.457 143.379 125.408 143.448 125.342 143.483C125.277 143.535 125.211 143.569 125.129 143.587C125.047 143.604 124.932 143.621 124.817 143.621H124.062ZM124.325 142.412H124.752C124.867 142.412 124.949 142.412 124.998 142.395C125.063 142.377 125.113 142.343 125.146 142.291C125.178 142.239 125.195 142.187 125.195 142.101C125.195 142.032 125.178 141.963 125.146 141.911C125.113 141.859 125.063 141.824 125.014 141.807C124.949 141.79 124.85 141.773 124.719 141.773H124.325V142.412ZM124.325 143.379H124.817C124.899 143.379 124.965 143.379 124.998 143.362C125.063 143.345 125.113 143.327 125.146 143.31C125.178 143.276 125.211 143.241 125.244 143.189C125.277 143.137 125.277 143.086 125.277 143.016C125.277 142.93 125.26 142.878 125.228 142.809C125.195 142.757 125.129 142.705 125.063 142.688C124.998 142.671 124.899 142.654 124.768 142.654H124.309V143.379H124.325Z" fill="#808080"/>
<path d="M125.802 142.861C125.802 142.585 125.868 142.377 126.015 142.239C126.147 142.136 126.294 142.066 126.475 142.066C126.672 142.066 126.836 142.136 126.951 142.274C127.082 142.412 127.148 142.602 127.148 142.844C127.148 143.034 127.115 143.189 127.066 143.31C127.016 143.414 126.934 143.501 126.819 143.57C126.705 143.639 126.606 143.656 126.475 143.656C126.278 143.656 126.114 143.587 125.983 143.449C125.868 143.31 125.802 143.12 125.802 142.861ZM126.048 142.861C126.048 143.051 126.081 143.207 126.163 143.293C126.245 143.397 126.344 143.431 126.475 143.431C126.59 143.431 126.688 143.38 126.77 143.293C126.852 143.189 126.885 143.051 126.885 142.844C126.885 142.654 126.852 142.516 126.77 142.412C126.688 142.308 126.59 142.274 126.475 142.274C126.36 142.274 126.245 142.326 126.163 142.412C126.097 142.533 126.048 142.671 126.048 142.861Z" fill="#808080"/>
<path d="M127.344 142.861C127.344 142.585 127.427 142.377 127.574 142.239C127.689 142.136 127.853 142.066 128.017 142.066C128.214 142.066 128.378 142.136 128.51 142.274C128.641 142.412 128.707 142.602 128.707 142.844C128.707 143.034 128.674 143.189 128.624 143.31C128.575 143.414 128.493 143.501 128.378 143.57C128.263 143.639 128.149 143.656 128.034 143.656C127.837 143.656 127.673 143.587 127.541 143.449C127.41 143.31 127.344 143.12 127.344 142.861ZM127.591 142.861C127.591 143.051 127.623 143.207 127.706 143.293C127.788 143.397 127.886 143.431 128.001 143.431C128.116 143.431 128.231 143.38 128.296 143.293C128.378 143.189 128.411 143.051 128.411 142.844C128.411 142.654 128.378 142.516 128.296 142.412C128.214 142.308 128.116 142.274 128.001 142.274C127.886 142.274 127.788 142.326 127.706 142.412C127.64 142.533 127.591 142.671 127.591 142.861Z" fill="#808080"/>
<path d="M128.986 143.621V141.531H129.232V142.723L129.806 142.118H130.118L129.56 142.671L130.167 143.621H129.872L129.396 142.844L129.232 143.016V143.621H128.986Z" fill="#808080"/>
<path d="M131.168 143.621V141.531H131.923C132.054 141.531 132.153 141.531 132.218 141.548C132.317 141.565 132.399 141.6 132.465 141.652C132.53 141.703 132.58 141.773 132.629 141.859C132.662 141.945 132.694 142.049 132.694 142.153C132.694 142.325 132.645 142.481 132.53 142.602C132.415 142.723 132.235 142.792 131.956 142.792H131.447V143.638H131.168V143.621ZM131.431 142.533H131.94C132.104 142.533 132.235 142.498 132.301 142.429C132.366 142.36 132.415 142.274 132.415 142.153C132.415 142.066 132.399 141.997 132.35 141.928C132.301 141.859 132.251 141.824 132.186 141.807C132.136 141.79 132.054 141.79 131.94 141.79H131.431V142.533Z" fill="#808080"/>
<path d="M132.973 143.622V142.101H133.187V142.326C133.236 142.222 133.302 142.153 133.334 142.118C133.384 142.084 133.433 142.066 133.499 142.066C133.581 142.066 133.663 142.101 133.745 142.153L133.663 142.395C133.597 142.36 133.548 142.343 133.482 142.343C133.433 142.343 133.384 142.36 133.334 142.395C133.285 142.429 133.269 142.481 133.236 142.533C133.203 142.619 133.203 142.723 133.203 142.827V143.622H132.973Z" fill="#808080"/>
<path d="M133.81 142.861C133.81 142.585 133.876 142.377 134.024 142.239C134.139 142.136 134.303 142.066 134.483 142.066C134.68 142.066 134.844 142.136 134.959 142.274C135.09 142.412 135.156 142.602 135.156 142.844C135.156 143.034 135.123 143.189 135.074 143.31C135.025 143.414 134.943 143.501 134.828 143.57C134.729 143.639 134.614 143.656 134.483 143.656C134.286 143.656 134.122 143.587 133.991 143.449C133.876 143.31 133.81 143.12 133.81 142.861ZM134.073 142.861C134.073 143.051 134.106 143.207 134.188 143.293C134.27 143.397 134.368 143.431 134.483 143.431C134.598 143.431 134.696 143.38 134.779 143.293C134.861 143.189 134.893 143.051 134.893 142.844C134.893 142.654 134.844 142.516 134.779 142.412C134.696 142.308 134.598 142.274 134.483 142.274C134.368 142.274 134.253 142.326 134.188 142.412C134.106 142.533 134.073 142.671 134.073 142.861Z" fill="#808080"/>
<path d="M254 149.028H0V152.587H254V149.028Z" fill="url(#paint2_linear)"/>
<path d="M254 144.381H0V145.21H254V144.381Z" fill="url(#paint3_linear)"/>
<defs>
<linearGradient id="paint0_linear" x1="0.00475901" y1="146.968" x2="253.994" y2="146.968" gradientUnits="userSpaceOnUse">
<stop stop-color="#EBEBEA"/>
<stop offset="0.02" stop-color="#5B5A5A"/>
<stop offset="0.1" stop-color="#B8B8B8"/>
<stop offset="0.5" stop-color="#B8B8B8"/>
<stop offset="0.9" stop-color="#B8B8B8"/>
<stop offset="0.98" stop-color="#5B5A5A"/>
<stop offset="1" stop-color="#EBEBEA"/>
</linearGradient>
<linearGradient id="paint1_linear" x1="109.076" y1="146.333" x2="144.918" y2="146.333" gradientUnits="userSpaceOnUse">
<stop stop-color="#5B5A5A"/>
<stop offset="0.15" stop-color="#E0E0E0"/>
<stop offset="0.5" stop-color="#E0E0E0"/>
<stop offset="0.85" stop-color="#E0E0E0"/>
<stop offset="0.9944" stop-color="#FBFBFA"/>
<stop offset="1" stop-color="#FBFBFA"/>
</linearGradient>
<linearGradient id="paint2_linear" x1="126.998" y1="152.576" x2="126.998" y2="149.022" gradientUnits="userSpaceOnUse">
<stop stop-color="#323333"/>
<stop offset="0.9944" stop-color="#656564"/>
<stop offset="1" stop-color="#656564"/>
</linearGradient>
<linearGradient id="paint3_linear" x1="0.00475901" y1="144.777" x2="253.994" y2="144.777" gradientUnits="userSpaceOnUse">
<stop stop-color="#EBEBEA"/>
<stop offset="0.01" stop-color="#C8C8C8"/>
<stop offset="0.5" stop-color="#C8C8C8"/>
<stop offset="0.99" stop-color="#C8C8C8"/>
<stop offset="1" stop-color="#EBEBEA"/>
</linearGradient>
</defs>
</svg>
