<svg width="76" height="95" viewBox="0 0 76 95" fill="none" xmlns="http://www.w3.org/2000/svg">
<path d="M66.1122 12.4468H57.4271V8.60187C57.4271 7.35791 56.0559 6.79253 54.7988 6.79253H48.0566C46.4568 2.26906 42.457 0.00732217 37.886 0.00732217C33.3652 -0.160863 29.2532 2.58227 27.7153 6.79253H21.0872C19.8302 6.79253 18.5731 7.35791 18.5731 8.60187V12.4468H9.8879C4.74111 12.5011 0.530493 16.5189 0.288574 21.6067V86.4052C0.288574 91.3811 4.85966 94.9998 9.8879 94.9998H66.1122C71.1404 94.9998 75.7115 91.3811 75.7115 86.4052V21.6069C75.4696 16.5189 71.2589 12.5011 66.1122 12.4468ZM23.144 11.316H29.4293C30.5265 11.1835 31.4077 10.3575 31.6007 9.28046C32.2774 6.36395 34.8631 4.2704 37.886 4.19161C40.8808 4.28144 43.4276 6.38148 44.0569 9.28046C44.2618 10.3948 45.2013 11.2314 46.3424 11.316H52.8563V20.3629H23.144V11.316ZM71.1404 86.4054C71.1404 88.8933 68.6263 90.4765 66.1122 90.4765H9.8879C7.37378 90.4765 4.85966 88.8933 4.85966 86.4054V21.6069C5.09283 19.0172 7.26091 17.0178 9.8879 16.9704H18.5729V22.7379C18.6937 24.005 19.8026 24.9529 21.087 24.8866H54.7986C56.1066 24.9574 57.2504 24.0225 57.4269 22.7379V16.9702H66.1119C68.7387 17.0178 70.907 19.017 71.1402 21.6067V86.4054H71.1404Z" fill="#93C11A"/>
<path d="M29.2006 50.5569C28.3434 49.6627 26.9203 49.6123 26.0008 50.4439L18.687 57.3421L15.6016 54.1756C14.7443 53.2814 13.3213 53.2312 12.4017 54.0626C11.5165 54.9804 11.5165 56.4244 12.4017 57.3421L17.087 62.0918C17.4925 62.5412 18.0783 62.7897 18.6868 62.7704C19.2896 62.762 19.8647 62.518 20.2866 62.0918L29.2002 53.7234C30.0839 52.9213 30.1429 51.5619 29.3321 50.6877C29.2905 50.642 29.2466 50.5985 29.2006 50.5569Z" fill="#93C11A"/>
<path d="M61.9981 55.4197H35.7145C34.4522 55.4197 33.429 56.4323 33.429 57.6814C33.429 58.9306 34.4522 59.9432 35.7145 59.9432H61.9981C63.2604 59.9432 64.2837 58.9306 64.2837 57.6814C64.2837 56.4323 63.2604 55.4197 61.9981 55.4197Z" fill="#93C11A"/>
<path d="M29.2006 32.4632C28.3434 31.569 26.9203 31.5186 26.0008 32.3502L18.687 39.2484L15.6016 36.0819C14.7443 35.1877 13.3213 35.1373 12.4017 35.9689C11.5165 36.8866 11.5165 38.3306 12.4017 39.2484L17.087 43.998C17.4925 44.4474 18.0783 44.6959 18.6868 44.6766C19.2896 44.6682 19.8647 44.4242 20.2866 43.998L29.2002 35.6297C30.0839 34.8275 30.1429 33.4682 29.3321 32.5939C29.2905 32.5482 29.2466 32.5047 29.2006 32.4632Z" fill="#93C11A"/>
<path d="M61.9981 37.3257H35.7145C34.4522 37.3257 33.429 38.3383 33.429 39.5874C33.429 40.8366 34.4522 41.8492 35.7145 41.8492H61.9981C63.2604 41.8492 64.2837 40.8366 64.2837 39.5874C64.2837 38.3383 63.2604 37.3257 61.9981 37.3257Z" fill="#93C11A"/>
<path d="M29.2006 68.6508C28.3434 67.7567 26.9203 67.7064 26.0008 68.5378L18.687 75.436L15.6016 72.2695C14.7443 71.3753 13.3213 71.3251 12.4017 72.1565C11.5165 73.0743 11.5165 74.5183 12.4017 75.436L17.087 80.1857C17.4925 80.6351 18.0783 80.8835 18.6868 80.8643C19.2896 80.8558 19.8647 80.6119 20.2866 80.1857L29.2002 71.8173C30.0839 71.0152 30.1429 69.6558 29.3321 68.7816C29.2905 68.7361 29.2466 68.6926 29.2006 68.6508Z" fill="#93C11A"/>
<path d="M61.9981 73.5137H35.7145C34.4522 73.5137 33.429 74.5262 33.429 75.7754C33.429 77.0246 34.4522 78.0371 35.7145 78.0371H61.9981C63.2604 78.0371 64.2837 77.0246 64.2837 75.7754C64.2837 74.5262 63.2604 73.5137 61.9981 73.5137Z" fill="#93C11A"/>
</svg>
