<svg width="79" height="47" viewBox="0 0 79 47" fill="none" xmlns="http://www.w3.org/2000/svg">
<path d="M76.2998 16.1709H74.3711V8.37891C74.3711 6.54972 72.8829 5.06152 71.0537 5.06152H66.1162C65.7667 5.06152 65.4299 5.11661 65.1133 5.21736V4.75293C65.1133 2.24314 63.0713 0.201172 60.5615 0.201172H54.3896C51.8799 0.201172 49.8379 2.24314 49.8379 4.75293V18.376H29.1621V4.75293C29.1621 2.24314 27.1201 0.201172 24.6104 0.201172H18.4385C15.9287 0.201172 13.8867 2.24314 13.8867 4.75293V5.21736C13.5701 5.11661 13.2333 5.06152 12.8838 5.06152H7.94629C6.1171 5.06152 4.62891 6.54972 4.62891 8.37891V9.87358C4.62891 10.5127 5.14704 11.0308 5.78613 11.0308C6.42523 11.0308 6.94336 10.5127 6.94336 9.87358V8.37891C6.94336 7.82591 7.39329 7.37598 7.94629 7.37598H12.8838C13.4368 7.37598 13.8867 7.82591 13.8867 8.37891V38.6211C13.8867 39.1741 13.4368 39.624 12.8838 39.624H7.94629C7.39329 39.624 6.94336 39.1741 6.94336 38.6211V14.8253C6.94336 14.1862 6.42523 13.668 5.78613 13.668C5.14704 13.668 4.62891 14.1862 4.62891 14.8253V16.1709H2.7002C1.21138 16.1709 0 17.3823 0 18.8711V28.1289C0 29.6177 1.21138 30.8291 2.7002 30.8291H4.62891V38.6211C4.62891 40.4503 6.1171 41.9385 7.94629 41.9385H12.8838C13.2333 41.9385 13.5701 41.8834 13.8867 41.7826V42.2471C13.8867 44.7569 15.9287 46.7988 18.4385 46.7988H24.6104C27.1201 46.7988 29.1621 44.7569 29.1621 42.2471V28.624H30.8464C31.4855 28.624 32.0036 28.1059 32.0036 27.4668C32.0036 26.8277 31.4855 26.3096 30.8464 26.3096H29.1621V20.6904H49.8379V26.3096H35.8629C35.2238 26.3096 34.7057 26.8277 34.7057 27.4668C34.7057 28.1059 35.2238 28.624 35.8629 28.624H49.8379V42.2471C49.8379 44.7569 51.8799 46.7988 54.3896 46.7988H60.5615C63.0713 46.7988 65.1133 44.7569 65.1133 42.2471V41.7826C65.4299 41.8834 65.7667 41.9385 66.1162 41.9385H71.0537C72.8829 41.9385 74.3711 40.4503 74.3711 38.6211V37.0584C74.3711 36.4193 73.853 35.9011 73.2139 35.9011C72.5748 35.9011 72.0566 36.4193 72.0566 37.0584V38.6211C72.0566 39.1741 71.6067 39.624 71.0537 39.624H66.1162C65.5632 39.624 65.1133 39.1741 65.1133 38.6211V8.37891C65.1133 7.82591 65.5632 7.37598 66.1162 7.37598H71.0537C71.6067 7.37598 72.0566 7.82591 72.0566 8.37891V32.0635C72.0566 32.7026 72.5748 33.2207 73.2139 33.2207C73.853 33.2207 74.3711 32.7026 74.3711 32.0635V30.8291H76.2998C77.7886 30.8291 79 29.6177 79 28.1289V18.8711C79 17.3823 77.7886 16.1709 76.2998 16.1709ZM2.7002 28.5146C2.48757 28.5146 2.31445 28.3415 2.31445 28.1289V18.8711C2.31445 18.6585 2.48757 18.4854 2.7002 18.4854H4.62891V28.5146H2.7002ZM26.8477 42.2471C26.8477 43.4807 25.844 44.4844 24.6104 44.4844H18.4385C17.2049 44.4844 16.2012 43.4807 16.2012 42.2471V4.75293C16.2012 3.51933 17.2049 2.51562 18.4385 2.51562H24.6104C25.844 2.51562 26.8477 3.51933 26.8477 4.75293V42.2471ZM62.7988 42.2471C62.7988 43.4807 61.7951 44.4844 60.5615 44.4844H54.3896C53.156 44.4844 52.1523 43.4807 52.1523 42.2471V4.75293C52.1523 3.51933 53.156 2.51562 54.3896 2.51562H60.5615C61.7951 2.51562 62.7988 3.51933 62.7988 4.75293V42.2471ZM76.6855 28.1289C76.6855 28.3415 76.5124 28.5146 76.2998 28.5146H74.3711V18.4854H76.2998C76.5124 18.4854 76.6855 18.6585 76.6855 18.8711V28.1289Z" fill="#FFFF00"/>
</svg>
