<svg width="79" height="79" viewBox="0 0 79 79" fill="#93C11A" xmlns="http://www.w3.org/2000/svg">
<path d="M39.2243 10.0386C40.0825 10.0386 40.7782 9.34283 40.7782 8.48463V1.55392C40.7782 0.695725 40.0825 0 39.2243 0C38.3661 0 37.6704 0.695725 37.6704 1.55392V8.48463C37.6706 9.34283 38.3663 10.0386 39.2243 10.0386Z" />
<path d="M77.208 53.3844L74.4629 50.647C73.4864 49.6717 72.1849 49.1345 70.798 49.1345C69.9113 49.1345 69.06 49.3551 68.3057 49.7685L63.1327 44.6017L63.3847 44.35C65.4833 42.2473 65.4825 38.8304 63.3845 36.7347C62.6348 35.9836 61.6993 35.4827 60.6796 35.272C60.82 34.7873 60.8939 34.2797 60.8939 33.7602C60.8939 32.3167 60.3332 30.9632 59.3182 29.9524C58.5683 29.2013 57.633 28.7005 56.6132 28.4897C56.7536 28.0051 56.8275 27.4976 56.8275 26.9779C56.8275 25.5343 56.2668 24.181 55.2502 23.1686C54.4824 22.4018 53.5385 21.9163 52.5475 21.7097C53.0777 19.8818 52.6246 17.8252 51.1866 16.3846C49.9896 15.1927 48.3653 14.6804 46.7999 14.8465L36.5492 12.9062C34.9859 12.6096 33.0336 12.4135 31.8012 13.5376C31.7234 13.6085 31.6441 13.6902 31.5661 13.781C29.6552 13.0845 27.4266 13.4993 25.8964 15.0278C24.8813 16.0416 24.3221 17.3945 24.3221 18.8372C24.3221 19.3569 24.3957 19.8643 24.536 20.3491C23.5173 20.5598 22.583 21.06 21.8358 21.8086C20.8187 22.8216 20.2578 24.1729 20.2567 25.6139C20.2562 26.1348 20.3302 26.644 20.4712 27.13C19.4521 27.3402 18.5172 27.8395 17.7676 28.5881C16.7505 29.6042 16.1904 30.9578 16.1904 32.3997C16.1904 33.5042 16.5201 34.5563 17.1311 35.4451C16.3596 35.7066 15.653 36.1419 15.0612 36.733C12.9612 38.8304 12.9605 42.2474 15.0626 44.3533L15.3137 44.6032L10.1401 49.7674C8.21739 48.8621 5.84847 49.2013 4.26183 50.7859L1.51504 53.525C0.538033 54.5008 0.000154297 55.8024 0 57.19C0 58.5777 0.538033 59.8795 1.51504 60.8555L4.94305 64.2793C5.55021 64.8859 6.53416 64.8852 7.14055 64.2781C7.74709 63.6709 7.74647 62.687 7.13932 62.0806L3.7113 58.6567C3.32217 58.2681 3.10785 57.7472 3.10785 57.1902C3.10785 56.6333 3.32217 56.1125 3.71038 55.7248L6.45732 52.9856C7.14364 52.3 8.19409 52.1979 8.9918 52.6748C9.04797 52.7592 9.11293 52.8394 9.1873 52.914C9.32046 53.0474 9.47244 53.1497 9.63383 53.2246L25.3865 68.9541C25.4613 69.1171 25.5641 69.2707 25.6981 69.4049C25.8287 69.5356 25.9776 69.6367 26.1356 69.711C26.4687 70.0877 26.6528 70.5688 26.6528 71.082C26.6528 71.639 26.4385 72.1597 26.0493 72.5484L23.3052 75.2893C22.4943 76.0966 21.1754 76.0965 20.367 75.2918L16.939 71.8635C16.3322 71.2566 15.3484 71.2566 14.7415 71.8635C14.1347 72.4703 14.1347 73.4541 14.7415 74.061L18.172 77.4918C19.1817 78.4973 20.5077 78.9999 21.8344 78.9999C23.1613 78.9999 24.4889 78.4965 25.4999 77.4901L28.2457 74.7474C29.2227 73.7715 29.7608 72.4699 29.7608 71.082C29.7608 70.0915 29.4854 69.1457 28.9732 68.3301L34.7958 62.5146C34.802 62.5083 34.8081 62.502 34.8145 62.4957C35.4812 61.8064 37.3378 61.9354 39.1334 62.0601C40.4091 62.1488 41.8314 62.2474 43.221 62.0872L49.5972 68.4558C49.1841 69.209 48.9636 70.0591 48.9636 70.9445C48.9636 72.3308 49.5017 73.6317 50.4787 74.6076L53.2247 77.3503C54.2011 78.3256 55.5026 78.8628 56.8894 78.8628C58.2761 78.8628 59.5776 78.3257 60.5541 77.3503L77.2091 60.7155C78.1861 59.7397 78.7241 58.4381 78.7241 57.0504C78.724 55.6628 78.1859 54.3611 77.208 53.3844ZM35.9706 15.9597L42.7114 17.2356L38.6767 21.2688C38.0525 20.9688 37.1971 20.4093 36.2587 19.5116C34.9742 18.2828 34.0553 16.864 33.9717 15.9792C33.9715 15.9787 33.9715 15.9782 33.9715 15.9778C33.9715 15.9776 33.9714 15.9775 33.9714 15.9773C33.9654 15.9137 33.9638 15.863 33.9646 15.8242C34.1678 15.7749 34.7075 15.7201 35.9706 15.9597ZM28.0925 17.2266C28.8797 16.4402 30.1027 16.3495 30.9922 16.9518C31.4963 19.0654 33.2993 20.981 34.1104 21.7571C34.7115 22.3323 36.6404 24.0569 38.5873 24.5309C38.8507 24.9085 38.9941 25.3586 38.9941 25.8335C38.9941 26.4453 38.7588 27.0172 38.33 27.4456C37.9024 27.8739 37.3295 28.1097 36.7166 28.1097C36.1036 28.1097 35.5307 27.8739 35.1011 27.4436L35.101 27.4434L35.1002 27.4426L28.0924 20.4474C27.6651 20.0208 27.4298 19.4488 27.4298 18.8372C27.43 18.2254 27.6653 17.6534 28.0925 17.2266ZM24.032 24.0075C24.4596 23.5794 25.0319 23.3434 25.6438 23.3434C26.2565 23.3434 26.8307 23.5798 27.261 24.0097L32.904 29.6414C33.7926 30.5314 33.7926 31.9796 32.907 32.8665C32.4772 33.2947 31.9023 33.5304 31.2883 33.5304C30.6744 33.5304 30.0995 33.2947 29.6714 32.8683L29.6713 32.8682L25.3903 28.5881C25.3837 28.5815 25.3764 28.5753 25.3696 28.5685L24.0303 27.2299C23.6006 26.8006 23.3641 26.2276 23.3646 25.6162C23.3652 25.0069 23.6009 24.4368 24.032 24.0075ZM19.9639 30.787C20.3917 30.3598 20.9652 30.1245 21.579 30.1245C22.1877 30.1245 22.7563 30.3564 23.1823 30.7762L27.4764 35.0683C27.9046 35.4948 28.1405 36.0661 28.1405 36.6772C28.1405 37.288 27.9046 37.8594 27.4747 38.2875C27.047 38.7146 26.4741 38.9499 25.8614 38.9499C25.2477 38.9499 24.673 38.714 24.2447 38.2875L22.688 36.7327C22.6877 36.7322 22.6872 36.7319 22.6869 36.7316L19.964 34.012C19.5348 33.5832 19.2984 33.0104 19.2984 32.3994C19.2984 31.7886 19.5348 31.2157 19.9639 30.787ZM17.2575 38.9317C17.6872 38.5025 18.2615 38.2661 18.8745 38.2661C19.4874 38.2661 20.0615 38.5023 20.4911 38.9313L22.0499 40.4883C22.4783 40.9148 22.714 41.4861 22.714 42.0971C22.714 42.7082 22.4781 43.2794 22.0467 43.7092C21.6192 44.1374 21.0462 44.3733 20.4334 44.3733C19.8204 44.3733 19.2475 44.1376 18.8168 43.7062L18.6216 43.5117C18.619 43.5091 18.617 43.5063 18.6145 43.5039C18.6116 43.5011 18.6085 43.4986 18.6056 43.4958L17.259 42.1545C16.3704 41.2641 16.3697 39.8185 17.2575 38.9317ZM48.9244 56.5923C48.3179 55.9849 47.334 55.9845 46.727 56.5909L45.3445 57.9717C44.0308 59.2853 41.6504 59.1199 39.3485 58.9602C36.8487 58.7865 34.2638 58.6072 32.591 60.3245L26.8674 66.0412L12.5544 51.7492L17.6196 46.693C18.4568 47.2062 19.4229 47.4813 20.4337 47.4813C21.8778 47.4813 23.2319 46.9215 24.2433 45.9083C25.2615 44.8942 25.8223 43.5409 25.8223 42.0973C25.8223 42.0839 25.8214 42.0706 25.8214 42.0572C25.8348 42.0573 25.8483 42.0581 25.8617 42.0581C27.3038 42.0581 28.6568 41.5 29.6696 40.4884C30.6878 39.4744 31.2487 38.1209 31.2487 36.6775C31.2487 36.664 31.2477 36.6508 31.2477 36.6373C31.2613 36.6373 31.2749 36.6383 31.2886 36.6383C32.7302 36.6383 34.084 36.0808 35.1036 35.0654C36.1621 34.0052 36.6856 32.6094 36.6756 31.2166C36.6895 31.2167 36.7034 31.2175 36.7173 31.2175C38.1613 31.2174 39.5153 30.6577 40.5282 29.6429C41.5434 28.629 42.1025 27.2762 42.1025 25.8335C42.1025 24.8245 41.8282 23.86 41.3167 23.0245L45.7563 18.5868C46.0871 18.2573 46.495 18.0506 46.9226 17.9653C46.9689 17.9603 47.0146 17.9529 47.0598 17.944C47.7458 17.8494 48.4662 18.0611 48.9908 18.5835C49.8794 19.4737 49.8794 20.9219 48.994 21.8088L47.6419 23.1553C47.6375 23.1598 47.6327 23.1638 47.6282 23.1683L46.0709 24.723C45.4636 25.3294 45.463 26.3133 46.0695 26.9205C46.6762 27.5278 47.66 27.5283 48.267 26.9219L49.6245 25.5662C49.6248 25.5659 49.6251 25.5656 49.6254 25.5653L49.8306 25.3609C50.7217 24.478 52.1653 24.4798 53.0554 25.3687C53.4838 25.7952 53.7197 26.3666 53.7197 26.9776C53.7197 27.5885 53.4838 28.1598 53.052 28.5897L51.6922 29.9523C51.6921 29.9524 51.6919 29.9526 51.6918 29.9529L50.1346 31.5037C49.5265 32.1093 49.5245 33.0933 50.1301 33.7012C50.7357 34.3093 51.7195 34.3112 52.3276 33.7057L53.8919 32.1478C54.3194 31.7194 54.8923 31.4837 55.5052 31.4837C56.1182 31.4837 56.6913 31.7194 57.1219 32.1509C57.5503 32.5775 57.786 33.1488 57.786 33.7599C57.786 34.3707 57.5503 34.9421 57.1195 35.371L54.4085 38.0831C53.8018 38.6901 53.8019 39.6739 54.4088 40.2806C54.7123 40.584 55.1097 40.7355 55.5074 40.7355C55.9051 40.7355 56.3029 40.5836 56.6063 40.2801L57.9349 38.951C57.9425 38.9438 57.9507 38.9374 57.9582 38.9299C58.3858 38.5016 58.9587 38.2658 59.5715 38.2658C60.1846 38.2658 60.7575 38.5016 61.1866 38.9314C62.0742 39.8182 62.0735 41.2639 61.1866 42.1524L59.8357 43.5017C59.8352 43.5022 59.8346 43.5026 59.8342 43.5031C59.8337 43.5036 59.8332 43.5042 59.8328 43.5046L57.6887 45.6461C57.0815 46.2527 57.0809 47.2366 57.6873 47.8438C57.9908 48.1476 58.3889 48.2996 58.7868 48.2996C59.1841 48.2996 59.5816 48.148 59.8849 47.8452L60.9337 46.7976L65.9602 51.8183L51.6484 66.1127L46.5205 60.9909C46.878 60.761 47.2201 60.4907 47.5412 60.1696L48.9229 58.7896C49.5304 58.1834 49.531 57.1994 48.9244 56.5923ZM75.0126 58.5166L58.3577 75.1514C57.9681 75.5405 57.4466 75.7548 56.8892 75.7548C56.3319 75.7548 55.8104 75.5405 55.4207 75.1512L52.6746 72.4086C52.2855 72.0201 52.0712 71.5001 52.0712 70.9445C52.0712 70.389 52.2855 69.869 52.6746 69.4804L69.3296 52.8456C69.7193 52.4563 70.2407 52.242 70.7982 52.242C71.3555 52.242 71.877 52.4563 72.2677 52.8465L75.0128 55.5839C75.4019 55.9726 75.6163 56.4932 75.6163 57.0502C75.6161 57.6074 75.4018 58.1281 75.0126 58.5166Z" />
<path d="M18.5903 8.72863C18.8936 9.03136 19.2908 9.18258 19.688 9.18258C20.086 9.18258 20.4843 9.03044 20.7878 8.72632C21.394 8.11885 21.3931 7.13506 20.7856 6.52882L15.1232 0.8777C14.5159 0.271467 13.532 0.272239 12.9257 0.87986C12.3195 1.48733 12.3204 2.47112 12.9279 3.07736L18.5903 8.72863Z" />
<path d="M58.7607 9.18252C59.158 9.18252 59.5555 9.031 59.8588 8.72811L65.5169 3.07683C66.124 2.47045 66.1247 1.4865 65.5181 0.879339C64.9117 0.27218 63.9279 0.271563 63.3206 0.878104L57.6625 6.52938C57.0554 7.13577 57.0548 8.11972 57.6613 8.72688C57.9648 9.03069 58.3627 9.18252 58.7607 9.18252Z" />
<path d="M9.55491 66.842C8.95331 67.4539 8.96164 68.4379 9.57374 69.0395L9.57821 69.0438C9.88017 69.3407 10.2722 69.4885 10.6642 69.4885C11.0664 69.4885 11.4687 69.3328 11.7734 69.0228C12.375 68.4109 12.3643 67.4248 11.7524 66.8232C11.1406 66.2216 10.1568 66.23 9.55491 66.842Z" />
<path d="M52.7251 54.3536C52.9615 54.3536 53.2013 54.2997 53.4264 54.1863C54.1926 53.7998 54.5004 52.8654 54.1141 52.0992C53.7276 51.3329 52.793 51.0249 52.0269 51.4115L52.0183 51.4158C51.252 51.8023 50.9485 52.7345 51.3349 53.5008C51.6077 54.0421 52.1564 54.3536 52.7251 54.3536Z" />
</svg>
