<svg width="180" height="39" viewBox="0 0 180 39" fill="none" xmlns="http://www.w3.org/2000/svg">
<path d="M46.5521 18.3091H56.4037V25.2848L61.8768 18.3091H72.6546L64.3186 27.5817L72.9072 37.79H61.6242L56.4879 30.3889V37.79H46.5521V18.3091Z" fill="white"/>
<path d="M44.1103 37.1942C42.5946 37.8747 40.4896 38.3851 37.4583 38.3851C29.4592 38.3851 23.7335 34.3018 23.7335 28.0917C23.7335 21.031 31.059 17.7983 37.2899 17.7983C39.3108 17.7983 42.0894 18.2237 44.0261 19.2445V26.0501C42.5104 24.6039 40.3212 24.0084 38.553 24.0084C34.9323 24.0084 33.1641 25.965 33.1641 28.2619C33.1641 30.7289 35.4375 32.1751 38.553 32.1751C40.7422 32.1751 42.5946 31.4094 44.0261 30.3886V37.1942H44.1103Z" fill="white"/>
<path d="M10.5981 25.5398V22.8176H11.5244C13.2084 22.8176 13.7136 23.4982 13.7136 24.1787C13.7136 24.8593 13.2926 25.5398 11.5244 25.5398H10.5981ZM0.746582 18.1388V37.6197H15.3134C22.1337 37.6197 23.6494 34.1318 23.6494 32.1752C23.6494 29.5381 21.3759 27.5815 18.1763 27.1561V27.0711C20.1971 26.5607 22.4705 25.1995 22.4705 22.9877C22.4705 21.4565 21.7127 18.0537 14.6398 18.0537H0.746582V18.1388ZM10.5981 32.9409V30.0485H11.777C12.7032 30.0485 14.2188 30.2186 14.2188 31.4947C14.2188 32.8558 12.7032 32.9409 11.777 32.9409H10.5981Z" fill="white"/>
<path d="M130.417 20.7757L127.638 20.8608L127.386 20.3504L124.691 20.1802V19.7549H121.744L122.249 20.6056L123.512 20.6906L123.344 20.4354L124.523 21.0309L126.544 21.3712H127.807L131.09 21.0309L130.417 20.7757Z" fill="white"/>
<path d="M123.26 18.9044L121.912 18.7343C121.912 18.7343 121.912 18.394 121.407 18.1388C120.902 17.9686 120.986 18.1388 120.986 18.1388L120.481 17.8836L119.555 17.7985L119.471 17.2881L118.292 17.203V16.9478L117.366 16.8627L116.945 16.6075L117.029 16.2673L116.776 16.012L115.682 15.5867L114.755 15.3315L114.166 14.8211L113.408 14.3107L112.482 13.6301L110.124 12.9495L107.851 11.6735L106.925 11.3332L105.914 10.9929L103.893 10.1423L100.862 8.86621L94.126 6.31413L92.1893 5.63357C91.0947 5.29329 90.9263 5.03809 90.9263 4.95302C89.9159 4.78288 89.5791 4.61274 89.0739 4.27246C88.5687 4.27246 87.3899 3.76204 87.0531 3.50684C87.0531 3.50684 85.1164 3.08149 84.948 2.99642C84.948 2.91135 79.8117 1.46517 79.2223 1.3801C78.8013 1.3801 77.5383 1.20996 77.3699 1.12489C77.2015 1.12489 76.3595 0.954753 76.0227 0.869683C74.9281 0.784614 73.9176 0.614475 72.823 0.614475C72.0652 0.614475 71.56 0.614475 70.8864 0.444336C70.6338 0.529405 69.034 0.359266 68.4445 0.699544C67.7709 0.699544 66.3395 0.954752 65.9185 1.12489C65.0765 1.12489 63.5609 1.89052 63.0557 2.06066C62.8031 2.14572 62.5505 2.23079 62.2979 2.31586C63.8977 2.74121 65.7501 3.25163 65.7501 3.3367C65.9185 3.42177 67.8551 3.84711 67.8551 3.84711C68.1919 4.10232 69.3708 4.61274 69.876 4.61274C70.3812 5.03809 70.718 5.12316 71.7284 5.29329C71.7284 5.37836 71.8968 5.63357 72.9914 5.97385L74.9281 6.6544L81.6642 9.20649L84.6954 10.4825L86.7163 11.3332L87.7267 11.6735L88.6529 12.0138L89.4107 12.4391L90.9263 12.8645L94.2944 13.7152L98.336 14.9061L99.8517 15.3315L101.367 15.6718L102.041 15.5867L102.799 15.7568L103.641 16.3523L104.567 16.0971L105.156 16.1822L105.662 16.6926L105.998 16.9478L106.756 17.1179L107.514 17.203L108.356 17.1179L109.366 17.203L109.703 17.7134L111.135 17.8836L112.145 17.9686L113.155 18.0537L113.998 18.3089L114.755 18.9044L115.85 19.0745L118.544 19.4148L120.986 19.1596L122.586 19.2447L123.26 18.9044Z" fill="white"/>
<path d="M101.199 21.9668H104.062L104.146 22.3921L106.84 22.5623L107.093 23.0727L109.872 22.9876L110.461 23.2428L107.261 23.5831H105.914L103.977 23.2428L102.799 22.6474L102.967 22.9026L101.704 22.8175L101.199 21.9668Z" fill="white"/>
<path d="M101.536 21.0313C101.536 21.0313 101.536 20.691 101.03 20.4358C100.525 20.2656 100.609 20.4358 100.609 20.4358L100.104 20.1806L99.178 20.0955L99.0938 19.5851L97.915 19.5V19.2448L96.9888 19.1597L96.5678 18.8194L96.7362 18.4792L96.4836 18.224L95.389 17.7986L94.4628 17.5434L93.8734 17.033L93.1155 16.5226L92.1893 15.842L89.8317 15.1615L87.5583 13.8854L86.632 13.5451L85.6216 13.2049L83.6008 12.3542L80.5695 11.0781L73.8334 8.52604L71.8968 7.84549C70.8022 7.50521 70.6338 7.25 70.6338 7.16493C69.6233 6.99479 69.2865 6.90972 68.7813 6.48438C68.2761 6.48438 67.0973 5.97396 66.7605 5.71875C66.7605 5.71875 64.8239 5.2934 64.6555 5.20833C64.6555 5.12326 59.5192 3.67708 58.9298 3.59201C58.5088 3.59201 57.2457 3.42188 57.0773 3.33681C56.9089 3.33681 56.0669 3.16667 55.7301 3.0816C54.6355 2.99653 53.6251 2.82639 52.5305 2.82639C51.7726 2.82639 51.2674 2.82639 50.5938 2.65625C50.3412 2.74132 48.7414 2.57118 48.152 2.91146C47.4784 2.91146 46.047 3.16667 45.6259 3.33681C44.7839 3.33681 43.2683 4.10243 42.7631 4.27257C42.3421 4.44271 41.8369 4.61285 41.4159 4.78299C41.2475 4.86806 38.3846 5.97396 38.2162 6.1441C38.3004 6.22917 35.4376 7.50521 35.185 7.67535C35.1008 7.76042 34.343 8.01562 34.1746 8.10069C34.0062 8.27083 33.2483 8.78125 32.9957 8.86632C32.9115 9.03646 32.1537 9.2066 32.0695 9.46181C31.9011 9.63194 31.0591 9.97222 30.8907 10.0573C30.8907 10.0573 30.3855 10.3976 30.0487 10.5677C29.8803 10.7378 29.7119 10.908 29.5435 11.0781C29.3751 11.1632 28.6173 11.5035 28.4489 11.5885C28.4489 11.9288 28.5331 12.4392 27.7753 12.3542C27.7753 12.3542 26.9332 12.7795 26.9332 12.6944C27.0174 12.6944 26.5122 13.2899 26.0912 13.7153C25.8386 13.9705 24.6598 14.3108 24.4072 14.566C23.902 15.0764 23.3126 15.5868 22.8074 16.0972C22.8074 16.0972 22.8074 16.0972 22.8916 16.0972C22.8916 16.1823 23.3968 16.1823 23.3968 16.2674C23.481 16.4375 23.2284 16.6076 23.1442 16.8628C23.1442 16.8628 23.1442 16.8628 23.2284 16.8628C23.5652 16.8628 23.9862 16.5226 24.2388 16.4375C24.4914 16.3524 24.744 16.2674 24.9966 16.1823C25.4176 16.0122 25.9228 15.7569 26.3438 15.5868C29.6277 14.2257 32.9957 12.7795 36.2796 11.4184C37.8794 10.7378 39.1424 10.1424 40.9107 9.37674C41.3317 9.2066 42.9315 8.3559 44.1103 8.27083C45.6259 8.18576 47.4784 8.52604 47.9836 8.61111C48.4888 8.69618 49.5834 9.2066 50.1728 9.29167C50.3412 9.37674 50.678 9.54688 50.7622 9.54688C50.8464 9.63195 51.9411 9.71701 52.5305 9.88715C52.6989 9.97222 52.9515 10.0573 53.1199 10.1424C54.0461 10.3976 56.4037 10.8229 57.3299 10.9931C58.0878 11.1632 58.5088 11.5035 58.8456 11.5035C59.3508 11.7587 59.435 11.6736 60.0244 11.8438C60.9506 11.9288 61.54 12.184 61.54 12.184C61.7926 12.2691 62.0452 12.3542 62.2978 12.4392C62.5504 12.4392 62.9714 12.6944 63.1398 12.7795C63.3924 12.7795 64.8239 13.2049 64.9923 13.2049C65.2449 13.2049 66.3395 13.5451 66.4237 13.6302C66.7605 13.7153 67.0973 13.8003 67.4341 13.8854L70.4654 14.8212L73.8334 15.6719L77.8751 16.8628L79.3907 17.2882L80.9063 17.6285L81.5799 17.5434L82.3378 17.7135L83.1798 18.309L84.106 18.0538L84.6954 18.1389L85.2006 18.6493L85.5374 18.9045L86.2952 19.0747L87.053 19.1597L87.9793 18.9896L88.9897 19.0747L89.3265 19.5851L90.7579 19.7552L91.7683 19.8403L92.7787 19.9253L93.6207 20.1806L94.3786 20.776L95.4732 20.9462L98.1676 21.2865L100.609 21.0313L102.209 21.1163L102.799 20.776L101.536 21.0313Z" fill="white"/>
<path d="M81.1589 37.0242C80.6537 37.1943 80.0643 37.3645 79.2223 37.3645C77.8751 37.3645 77.0331 37.0242 76.3595 36.5138C75.4332 35.8332 75.0964 35.0676 75.0964 34.2169C75.0964 33.111 75.6858 32.3454 76.3595 31.835C77.1173 31.2395 78.1277 31.0693 79.2223 31.0693C79.8117 31.0693 80.4011 31.1544 81.1589 31.4096V32.7707C80.4011 32.1752 79.5591 32.0902 79.2223 32.0902C77.6225 32.0902 76.6121 33.111 76.6121 34.2169C76.6121 35.578 77.9593 36.2586 79.3065 36.2586C80.0643 36.2586 80.6537 36.0034 81.1589 35.578V37.0242Z" fill="white"/>
<path d="M85.6216 37.1942H84.106V32.1751H82.3378V31.1543H87.3899V32.1751H85.6216V37.1942Z" fill="white"/>
<path d="M90.5053 32.1751H91.0106C91.3474 32.1751 91.7684 32.1751 92.1052 32.3453C92.3578 32.5154 92.5262 32.6855 92.5262 33.0258C92.5262 33.281 92.3578 33.5362 92.1052 33.7064C91.7684 33.8765 91.4316 33.8765 91.0948 33.8765H90.5053V32.1751ZM88.9055 31.1543V37.1942H90.4211V34.9824H91.4316C92.3578 34.9824 93.0314 34.8123 93.4524 34.472C94.0418 34.0467 94.126 33.3661 94.126 33.1109C94.126 32.6855 93.9576 32.0901 93.284 31.6647C92.6946 31.2394 92.1052 31.2394 91.179 31.2394H88.9055V31.1543Z" fill="white"/>
<path d="M97.3256 34.9826L98.4202 32.7708L99.5149 34.9826H97.3256ZM100.694 37.1944H102.378L99.0938 30.9844H97.915L94.4628 37.1944H96.1468L96.8204 35.9184H100.02L100.694 37.1944Z" fill="white"/>
<path d="M105.83 33.9617L103.472 31.0693H105.325L106.672 32.9409L108.103 31.0693H109.956L107.514 33.9617L110.208 37.1943H108.356L106.588 34.9825L104.735 37.1943H102.883L105.83 33.9617Z" fill="white"/>
<path d="M115.85 36.2587C114.334 36.2587 113.24 35.408 113.24 34.1319C113.24 32.941 114.334 32.0052 115.85 32.0052C117.365 32.0052 118.46 32.8559 118.46 34.1319C118.46 35.408 117.365 36.2587 115.85 36.2587ZM115.85 30.9844C113.408 30.9844 111.64 32.3455 111.64 34.1319C111.64 36.0035 113.324 37.2795 115.85 37.2795C118.376 37.2795 120.06 35.9184 120.06 34.1319C120.06 32.3455 118.376 30.9844 115.85 30.9844Z" fill="white"/>
<path d="M123.596 32.0901H124.017C124.607 32.0901 125.196 32.2602 125.196 32.8557C125.196 33.6213 124.27 33.6213 124.017 33.6213H123.596V32.0901ZM122.081 31.1543V37.1942H124.691C125.365 37.1942 126.122 37.1092 126.712 36.6838C127.217 36.3435 127.385 35.8331 127.385 35.4928C127.385 35.1526 127.301 34.7272 126.796 34.3869C126.628 34.2168 126.291 34.0467 125.786 34.0467C126.038 33.9616 126.712 33.6213 126.712 32.8557C126.712 32.3453 126.459 31.8349 125.954 31.5796C125.28 31.2394 124.438 31.2394 124.017 31.2394H122.081V31.1543ZM123.596 34.5571H124.186C124.523 34.5571 124.944 34.5571 125.28 34.6421C125.786 34.8123 125.87 35.1526 125.87 35.3227C125.87 35.5779 125.786 35.8331 125.365 36.0033C125.028 36.1734 124.607 36.1734 124.354 36.1734H123.681V34.5571H123.596Z" fill="white"/>
<path d="M133.28 36.2587C131.764 36.2587 130.669 35.408 130.669 34.1319C130.669 32.941 131.764 32.0052 133.28 32.0052C134.795 32.0052 135.89 32.8559 135.89 34.1319C135.89 35.408 134.795 36.2587 133.28 36.2587ZM133.28 30.9844C130.838 30.9844 129.07 32.3455 129.07 34.1319C129.07 36.0035 130.838 37.2795 133.28 37.2795C135.721 37.2795 137.49 35.9184 137.49 34.1319C137.49 32.3455 135.721 30.9844 133.28 30.9844Z" fill="white"/>
<path d="M141.026 31.1544V35.2377L145.405 30.9842H146.499V37.1943H144.984V33.1109L140.605 37.3644H139.51V31.1544H141.026ZM141.868 29.1978C142.121 29.7082 142.794 29.7082 142.963 29.7082C143.131 29.7082 143.805 29.7082 144.057 29.1978L145.152 29.538C144.815 30.1335 144.142 30.5589 143.047 30.5589C141.952 30.5589 141.195 30.1335 140.942 29.538L141.868 29.1978Z" fill="white"/>
<path d="M154.414 32.1751H156.688V36.1734H153.488C153.741 36.0033 153.909 35.8331 154.077 35.4928C154.246 35.2376 154.33 34.7272 154.33 33.7914V32.1751H154.414ZM152.899 31.1543V33.7914C152.899 34.6421 152.73 35.0675 152.646 35.4078C152.393 35.8331 151.972 36.2585 151.383 36.2585V38.6404H152.814V37.2793H157.698V38.6404H159.129V36.2585H158.287V31.2394H152.899V31.1543Z" fill="white"/>
<path d="M164.518 36.2587C163.003 36.2587 161.908 35.408 161.908 34.1319C161.908 32.941 163.003 32.0052 164.518 32.0052C166.034 32.0052 167.129 32.8559 167.129 34.1319C167.129 35.408 166.034 36.2587 164.518 36.2587ZM164.518 30.9844C162.076 30.9844 160.308 32.3455 160.308 34.1319C160.308 36.0035 162.076 37.2795 164.518 37.2795C166.96 37.2795 168.728 35.9184 168.728 34.1319C168.728 32.3455 166.96 30.9844 164.518 30.9844Z" fill="white"/>
<path d="M170.328 37.1944L171.76 30.9844H172.854L174.959 34.9826L177.233 30.9844H178.327L179.675 37.1944H178.075L177.401 33.4514L175.212 37.2795H174.791L172.686 33.4514L171.844 37.1944H170.328Z" fill="white"/>
</svg>
