<svg width="79" height="79" viewBox="0 0 79 79" fill="none" xmlns="http://www.w3.org/2000/svg">
<path d="M46.4434 7.09766C46.4434 8.37832 47.4771 9.41211 48.7578 9.41211C50.0385 9.41211 51.0723 8.37832 51.0723 7.09766V2.31445C51.0723 1.03379 50.0385 0 48.7578 0C47.4771 0 46.4434 1.03379 46.4434 2.31445V7.09766Z" fill="#93C11A"/>
<path d="M34.0225 6.24887C33.1121 7.15922 33.1121 8.62504 34.0225 9.51996L37.309 12.8065C38.2194 13.7168 39.6852 13.7168 40.5801 12.8065C41.475 11.8961 41.4904 10.4303 40.5801 9.53539L37.309 6.26429C36.3987 5.35394 34.9328 5.35394 34.0225 6.24887Z" fill="#93C11A"/>
<path d="M56.9356 9.53549C56.0252 10.4458 56.0252 11.9117 56.9356 12.8066C57.8459 13.7015 59.3117 13.7169 60.2067 12.8066L63.4777 9.53549C64.3881 8.62513 64.3881 7.15931 63.4777 6.26439C62.5674 5.36947 61.1016 5.35404 60.2067 6.26439L56.9356 9.53549Z" fill="#93C11A"/>
<path d="M34.8711 46.4434C38.7058 46.4434 41.8145 43.3347 41.8145 39.5C41.8145 35.6653 38.7058 32.5566 34.8711 32.5566C31.0364 32.5566 27.9277 35.6653 27.9277 39.5C27.9277 43.3347 31.0364 46.4434 34.8711 46.4434Z" fill="#93C11A"/>
<path d="M34.8709 60.4844C43.5733 60.4844 51.2573 55.084 54.4203 46.7828C56.5959 41.043 62.5364 37.1855 69.202 37.1855H76.6854C77.966 37.1855 78.9998 36.1518 78.9998 34.8711V20.9844C78.9998 19.7037 77.966 18.6699 76.6854 18.6699H58.0155C56.7348 18.6699 55.701 19.7037 55.701 20.9844C55.701 22.265 54.6672 23.2988 53.3866 23.2988C52.1059 23.2988 51.0721 22.265 51.0721 20.9844C51.0721 19.7037 50.0383 18.6699 48.7577 18.6699H34.8709C23.4375 18.6699 13.9637 27.9277 14.0409 39.7006C14.118 51.1186 23.4993 60.4844 34.8709 60.4844ZM34.8709 27.9277C41.2588 27.9277 46.4432 33.1121 46.4432 39.5C46.4432 45.8879 41.2588 51.0723 34.8709 51.0723C28.4831 51.0723 23.2987 45.8879 23.2987 39.5C23.2987 33.1121 28.4831 27.9277 34.8709 27.9277Z" fill="#93C11A"/>
<path d="M4.7832 46.0113V58.1699C4.7832 69.6496 14.1336 79 25.6133 79H34.8711C38.6977 79 41.8145 75.8832 41.8145 72.0566C41.8145 68.2301 38.6977 65.1133 34.8711 65.1133H16.3555C12.5289 65.1133 9.41211 61.9965 9.41211 58.1699V46.4434H10.3996C9.79785 44.2986 9.42754 42.0613 9.41211 39.7314C9.39668 37.2473 9.84414 34.8711 10.4922 32.5566H7.09766C3.27109 32.5566 0 35.6734 0 39.5C0 42.5088 2.09844 45.0547 4.7832 46.0113ZM16.3555 69.7422H34.8711C36.1518 69.7422 37.1855 70.776 37.1855 72.0566C37.1855 73.3373 36.1518 74.3711 34.8711 74.3711H25.6133C21.0924 74.3711 17.0035 72.5041 14.0564 69.5107C14.7971 69.665 15.5686 69.7422 16.3555 69.7422Z" fill="#93C11A"/>
</svg>
