<?xml version="1.0" encoding="utf-8"?>
<!-- Generator: Adobe Illustrator 25.0.0, SVG Export Plug-In . SVG Version: 6.00 Build 0)  -->
<svg version="1.1" id="Layer_1" xmlns="http://www.w3.org/2000/svg" xmlns:xlink="http://www.w3.org/1999/xlink" x="0px" y="0px"
	 viewBox="0 0 102.5 70.7" style="enable-background:new 0 0 102.5 70.7;" xml:space="preserve">
<style type="text/css">
	.st0{fill:#92C01A;}
</style>
<polygon class="st0" points="90.7,0 86.1,0 82.6,0 42.1,0 32.9,0 30.4,0 30.4,30.3 48.8,40.9 48.8,58.1 30.4,47.4 11.7,58.1 11.7,0 
	0,0 0,70.7 11.7,70.7 30.3,60.1 48.8,70.7 60.6,70.7 60.6,34.5 42.1,23.9 42.1,11.7 82.6,11.7 86.1,11.7 90.7,11.7 90.7,19.8 
	83.4,24.1 83.4,36.3 90.7,40.5 90.7,59 77.6,59 77.6,17.4 65.8,17.4 65.8,59 65.8,70.7 77.6,70.7 90.7,70.7 102.5,70.7 102.5,59 
	102.5,34.4 94.9,30 102.5,25.7 102.5,11.7 102.5,0 "/>
</svg>
